<svg xmlns="http://www.w3.org/2000/svg" width="158" height="73" viewBox="0 0 158 73">
  <g fill="#22D7DA" fill-rule="evenodd">
    <path d="M4.77419355 2.39344262C4.77419355 3.71545617 3.7056052 4.78688525 2.3860683 4.78688525 1.06858834 4.78688525 0 3.71545617 0 2.39344262 0 1.07142908 1.06858834 0 2.3860683 0 3.7056052 0 4.77419355 1.07142908 4.77419355 2.39344262M19.0967742 2.39344262C19.0967742 3.71545617 18.0281858 4.78688525 16.7091632 4.78688525 15.391169 4.78688525 14.3225806 3.71545617 14.3225806 2.39344262 14.3225806 1.07142908 15.391169 0 16.7091632 0 18.0281858 0 19.0967742 1.07142908 19.0967742 2.39344262M32.2258065 2.39344262C32.2258065 3.71545617 31.1569879 4.78688525 29.8387097 4.78688525 28.5199171 4.78688525 27.4516129 3.71545617 27.4516129 2.39344262 27.4516129 1.07142908 28.5199171 0 29.8387097 0 31.1569879 0 32.2258065 1.07142908 32.2258065 2.39344262M46.5483871 2.39344262C46.5483871 3.71545617 45.4795685 4.78688525 44.1602616 4.78688525 42.8419834 4.78688525 41.7741935 3.71545617 41.7741935 2.39344262 41.7741935 1.07142908 42.8419834 0 44.1602616 0 45.4795685 0 46.5483871 1.07142908 46.5483871 2.39344262M59.6774194 2.39344262C59.6774194 3.71545617 58.6093452 4.78688525 57.2898083 4.78688525 55.9718142 4.78688525 54.9032258 3.71545617 54.9032258 2.39344262 54.9032258 1.07142908 55.9718142 0 57.2898083 0 58.6093452 0 59.6774194 1.07142908 59.6774194 2.39344262M4.77419355 15.557377C4.77419355 16.8793906 3.7056052 17.9508197 2.3860683 17.9508197 1.06858834 17.9508197 0 16.8793906 0 15.557377 0 14.2358791 1.06858834 13.1639344 2.3860683 13.1639344 3.7056052 13.1639344 4.77419355 14.2358791 4.77419355 15.557377M19.0967742 15.557377C19.0967742 16.8793906 18.0281858 17.9508197 16.7091632 17.9508197 15.391169 17.9508197 14.3225806 16.8793906 14.3225806 15.557377 14.3225806 14.2358791 15.391169 13.1639344 16.7091632 13.1639344 18.0281858 13.1639344 19.0967742 14.2358791 19.0967742 15.557377M32.2258065 15.557377C32.2258065 16.8793906 31.1569879 17.9508197 29.8387097 17.9508197 28.5199171 17.9508197 27.4516129 16.8793906 27.4516129 15.557377 27.4516129 14.2358791 28.5199171 13.1639344 29.8387097 13.1639344 31.1569879 13.1639344 32.2258065 14.2358791 32.2258065 15.557377M46.5483871 15.557377C46.5483871 16.8793906 45.4795685 17.9508197 44.1602616 17.9508197 42.8419834 17.9508197 41.7741935 16.8793906 41.7741935 15.557377 41.7741935 14.2358791 42.8419834 13.1639344 44.1602616 13.1639344 45.4795685 13.1639344 46.5483871 14.2358791 46.5483871 15.557377M59.6774194 15.557377C59.6774194 16.8793906 58.6093452 17.9508197 57.2898083 17.9508197 55.9718142 17.9508197 54.9032258 16.8793906 54.9032258 15.557377 54.9032258 14.2358791 55.9718142 13.1639344 57.2898083 13.1639344 58.6093452 13.1639344 59.6774194 14.2358791 59.6774194 15.557377M4.77419355 30.5167157C4.77419355 32.1684102 3.7056052 33.5081967 2.3860683 33.5081967 1.06858834 33.5081967 0 32.1684102 0 30.5167157 0 28.8643767 1.06858834 27.5245902 2.3860683 27.5245902 3.7056052 27.5245902 4.77419355 28.8643767 4.77419355 30.5167157M19.0967742 30.5167157C19.0967742 32.1684102 18.0281858 33.5081967 16.7091632 33.5081967 15.391169 33.5081967 14.3225806 32.1684102 14.3225806 30.5167157 14.3225806 28.8643767 15.391169 27.5245902 16.7091632 27.5245902 18.0281858 27.5245902 19.0967742 28.8643767 19.0967742 30.5167157M32.2258065 30.5167157C32.2258065 32.1684102 31.1569879 33.5081967 29.8387097 33.5081967 28.5199171 33.5081967 27.4516129 32.1684102 27.4516129 30.5167157 27.4516129 28.8643767 28.5199171 27.5245902 29.8387097 27.5245902 31.1569879 27.5245902 32.2258065 28.8643767 32.2258065 30.5167157M46.5483871 30.5167157C46.5483871 32.1684102 45.4795685 33.5081967 44.1602616 33.5081967 42.8419834 33.5081967 41.7741935 32.1684102 41.7741935 30.5167157 41.7741935 28.8643767 42.8419834 27.5245902 44.1602616 27.5245902 45.4795685 27.5245902 46.5483871 28.8643767 46.5483871 30.5167157M59.6774194 30.5167157C59.6774194 32.1684102 58.6093452 33.5081967 57.2898083 33.5081967 55.9718142 33.5081967 54.9032258 32.1684102 54.9032258 30.5167157 54.9032258 28.8643767 55.9718142 27.5245902 57.2898083 27.5245902 58.6093452 27.5245902 59.6774194 28.8643767 59.6774194 30.5167157M4.77419355 43.6800056C4.77419355 45.3323446 3.7056052 46.6721311 2.3860683 46.6721311 1.06858834 46.6721311 0 45.3323446 0 43.6800056 0 42.0283111 1.06858834 40.6885246 2.3860683 40.6885246 3.7056052 40.6885246 4.77419355 42.0283111 4.77419355 43.6800056M19.0967742 43.6800056C19.0967742 45.3323446 18.0281858 46.6721311 16.7091632 46.6721311 15.391169 46.6721311 14.3225806 45.3323446 14.3225806 43.6800056 14.3225806 42.0283111 15.391169 40.6885246 16.7091632 40.6885246 18.0281858 40.6885246 19.0967742 42.0283111 19.0967742 43.6800056M32.2258065 43.6800056C32.2258065 45.3323446 31.1569879 46.6721311 29.8387097 46.6721311 28.5199171 46.6721311 27.4516129 45.3323446 27.4516129 43.6800056 27.4516129 42.0283111 28.5199171 40.6885246 29.8387097 40.6885246 31.1569879 40.6885246 32.2258065 42.0283111 32.2258065 43.6800056M46.5483871 43.6800056C46.5483871 45.3323446 45.4795685 46.6721311 44.1602616 46.6721311 42.8419834 46.6721311 41.7741935 45.3323446 41.7741935 43.6800056 41.7741935 42.0283111 42.8419834 40.6885246 44.1602616 40.6885246 45.4795685 40.6885246 46.5483871 42.0283111 46.5483871 43.6800056M59.6774194 43.6800056C59.6774194 45.3323446 58.6093452 46.6721311 57.2898083 46.6721311 55.9718142 46.6721311 54.9032258 45.3323446 54.9032258 43.6800056 54.9032258 42.0283111 55.9718142 40.6885246 57.2898083 40.6885246 58.6093452 40.6885246 59.6774194 42.0283111 59.6774194 43.6800056M4.77419355 57.442623C4.77419355 58.7641209 3.7056052 59.8360656 2.3860683 59.8360656 1.06858834 59.8360656 0 58.7641209 0 57.442623 0 56.1206094 1.06858834 55.0491803 2.3860683 55.0491803 3.7056052 55.0491803 4.77419355 56.1206094 4.77419355 57.442623M19.0967742 57.442623C19.0967742 58.7641209 18.0281858 59.8360656 16.7091632 59.8360656 15.391169 59.8360656 14.3225806 58.7641209 14.3225806 57.442623 14.3225806 56.1206094 15.391169 55.0491803 16.7091632 55.0491803 18.0281858 55.0491803 19.0967742 56.1206094 19.0967742 57.442623M32.2258065 57.442623C32.2258065 58.7641209 31.1569879 59.8360656 29.8387097 59.8360656 28.5199171 59.8360656 27.4516129 58.7641209 27.4516129 57.442623 27.4516129 56.1206094 28.5199171 55.0491803 29.8387097 55.0491803 31.1569879 55.0491803 32.2258065 56.1206094 32.2258065 57.442623M46.5483871 57.442623C46.5483871 58.7641209 45.4795685 59.8360656 44.1602616 59.8360656 42.8419834 59.8360656 41.7741935 58.7641209 41.7741935 57.442623 41.7741935 56.1206094 42.8419834 55.0491803 44.1602616 55.0491803 45.4795685 55.0491803 46.5483871 56.1206094 46.5483871 57.442623M59.6774194 57.442623C59.6774194 58.7641209 58.6093452 59.8360656 57.2898083 59.8360656 55.9718142 59.8360656 54.9032258 58.7641209 54.9032258 57.442623 54.9032258 56.1206094 55.9718142 55.0491803 57.2898083 55.0491803 58.6093452 55.0491803 59.6774194 56.1206094 59.6774194 57.442623M4.77419355 70.6065574C4.77419355 71.9285709 3.7056052 73 2.3860683 73 1.06858834 73 0 71.9285709 0 70.6065574 0 69.2845438 1.06858834 68.2131148 2.3860683 68.2131148 3.7056052 68.2131148 4.77419355 69.2845438 4.77419355 70.6065574M19.0967742 70.6065574C19.0967742 71.9285709 18.0281858 73 16.7091632 73 15.391169 73 14.3225806 71.9285709 14.3225806 70.6065574 14.3225806 69.2845438 15.391169 68.2131148 16.7091632 68.2131148 18.0281858 68.2131148 19.0967742 69.2845438 19.0967742 70.6065574M32.2258065 70.6065574C32.2258065 71.9285709 31.1569879 73 29.8387097 73 28.5199171 73 27.4516129 71.9285709 27.4516129 70.6065574 27.4516129 69.2845438 28.5199171 68.2131148 29.8387097 68.2131148 31.1569879 68.2131148 32.2258065 69.2845438 32.2258065 70.6065574M46.5483871 70.6065574C46.5483871 71.9285709 45.4795685 73 44.1602616 73 42.8419834 73 41.7741935 71.9285709 41.7741935 70.6065574 41.7741935 69.2845438 42.8419834 68.2131148 44.1602616 68.2131148 45.4795685 68.2131148 46.5483871 69.2845438 46.5483871 70.6065574M59.6774194 70.6065574C59.6774194 71.9285709 58.6093452 73 57.2898083 73 55.9718142 73 54.9032258 71.9285709 54.9032258 70.6065574 54.9032258 69.2845438 55.9718142 68.2131148 57.2898083 68.2131148 58.6093452 68.2131148 59.6774194 69.2845438 59.6774194 70.6065574M74 2.39344262C74 3.71545617 72.9319259 4.78688525 71.612389 4.78688525 70.2943948 4.78688525 69.2258065 3.71545617 69.2258065 2.39344262 69.2258065 1.07142908 70.2943948 0 71.612389 0 72.9319259 0 74 1.07142908 74 2.39344262M74 15.557377C74 16.8793906 72.9319259 17.9508197 71.612389 17.9508197 70.2943948 17.9508197 69.2258065 16.8793906 69.2258065 15.557377 69.2258065 14.2358791 70.2943948 13.1639344 71.612389 13.1639344 72.9319259 13.1639344 74 14.2358791 74 15.557377M74 30.5167157C74 32.1684102 72.9319259 33.5081967 71.612389 33.5081967 70.2943948 33.5081967 69.2258065 32.1684102 69.2258065 30.5167157 69.2258065 28.8643767 70.2943948 27.5245902 71.612389 27.5245902 72.9319259 27.5245902 74 28.8643767 74 30.5167157M74 43.6800056C74 45.3323446 72.9319259 46.6721311 71.612389 46.6721311 70.2943948 46.6721311 69.2258065 45.3323446 69.2258065 43.6800056 69.2258065 42.0283111 70.2943948 40.6885246 71.612389 40.6885246 72.9319259 40.6885246 74 42.0283111 74 43.6800056M74 57.442623C74 58.7641209 72.9319259 59.8360656 71.612389 59.8360656 70.2943948 59.8360656 69.2258065 58.7641209 69.2258065 57.442623 69.2258065 56.1206094 70.2943948 55.0491803 71.612389 55.0491803 72.9319259 55.0491803 74 56.1206094 74 57.442623M74 70.6065574C74 71.9285709 72.9319259 73 71.612389 73 70.2943948 73 69.2258065 71.9285709 69.2258065 70.6065574 69.2258065 69.2845438 70.2943948 68.2131148 71.612389 68.2131148 72.9319259 68.2131148 74 69.2845438 74 70.6065574"/>
    <path d="M4.77419355 2.39344262C4.77419355 3.71545617 3.7056052 4.78688525 2.3860683 4.78688525 1.06858834 4.78688525 0 3.71545617 0 2.39344262 0 1.07142908 1.06858834 0 2.3860683 0 3.7056052 0 4.77419355 1.07142908 4.77419355 2.39344262M19.0967742 2.39344262C19.0967742 3.71545617 18.0281858 4.78688525 16.7091632 4.78688525 15.391169 4.78688525 14.3225806 3.71545617 14.3225806 2.39344262 14.3225806 1.07142908 15.391169 0 16.7091632 0 18.0281858 0 19.0967742 1.07142908 19.0967742 2.39344262M32.2258065 2.39344262C32.2258065 3.71545617 31.1569879 4.78688525 29.8387097 4.78688525 28.5199171 4.78688525 27.4516129 3.71545617 27.4516129 2.39344262 27.4516129 1.07142908 28.5199171 0 29.8387097 0 31.1569879 0 32.2258065 1.07142908 32.2258065 2.39344262M46.5483871 2.39344262C46.5483871 3.71545617 45.4795685 4.78688525 44.1602616 4.78688525 42.8419834 4.78688525 41.7741935 3.71545617 41.7741935 2.39344262 41.7741935 1.07142908 42.8419834 0 44.1602616 0 45.4795685 0 46.5483871 1.07142908 46.5483871 2.39344262M59.6774194 2.39344262C59.6774194 3.71545617 58.6093452 4.78688525 57.2898083 4.78688525 55.9718142 4.78688525 54.9032258 3.71545617 54.9032258 2.39344262 54.9032258 1.07142908 55.9718142 0 57.2898083 0 58.6093452 0 59.6774194 1.07142908 59.6774194 2.39344262M4.77419355 15.557377C4.77419355 16.8793906 3.7056052 17.9508197 2.3860683 17.9508197 1.06858834 17.9508197 0 16.8793906 0 15.557377 0 14.2358791 1.06858834 13.1639344 2.3860683 13.1639344 3.7056052 13.1639344 4.77419355 14.2358791 4.77419355 15.557377M19.0967742 15.557377C19.0967742 16.8793906 18.0281858 17.9508197 16.7091632 17.9508197 15.391169 17.9508197 14.3225806 16.8793906 14.3225806 15.557377 14.3225806 14.2358791 15.391169 13.1639344 16.7091632 13.1639344 18.0281858 13.1639344 19.0967742 14.2358791 19.0967742 15.557377M32.2258065 15.557377C32.2258065 16.8793906 31.1569879 17.9508197 29.8387097 17.9508197 28.5199171 17.9508197 27.4516129 16.8793906 27.4516129 15.557377 27.4516129 14.2358791 28.5199171 13.1639344 29.8387097 13.1639344 31.1569879 13.1639344 32.2258065 14.2358791 32.2258065 15.557377M46.5483871 15.557377C46.5483871 16.8793906 45.4795685 17.9508197 44.1602616 17.9508197 42.8419834 17.9508197 41.7741935 16.8793906 41.7741935 15.557377 41.7741935 14.2358791 42.8419834 13.1639344 44.1602616 13.1639344 45.4795685 13.1639344 46.5483871 14.2358791 46.5483871 15.557377M59.6774194 15.557377C59.6774194 16.8793906 58.6093452 17.9508197 57.2898083 17.9508197 55.9718142 17.9508197 54.9032258 16.8793906 54.9032258 15.557377 54.9032258 14.2358791 55.9718142 13.1639344 57.2898083 13.1639344 58.6093452 13.1639344 59.6774194 14.2358791 59.6774194 15.557377M4.77419355 30.5167157C4.77419355 32.1684102 3.7056052 33.5081967 2.3860683 33.5081967 1.06858834 33.5081967 0 32.1684102 0 30.5167157 0 28.8643767 1.06858834 27.5245902 2.3860683 27.5245902 3.7056052 27.5245902 4.77419355 28.8643767 4.77419355 30.5167157M19.0967742 30.5167157C19.0967742 32.1684102 18.0281858 33.5081967 16.7091632 33.5081967 15.391169 33.5081967 14.3225806 32.1684102 14.3225806 30.5167157 14.3225806 28.8643767 15.391169 27.5245902 16.7091632 27.5245902 18.0281858 27.5245902 19.0967742 28.8643767 19.0967742 30.5167157M32.2258065 30.5167157C32.2258065 32.1684102 31.1569879 33.5081967 29.8387097 33.5081967 28.5199171 33.5081967 27.4516129 32.1684102 27.4516129 30.5167157 27.4516129 28.8643767 28.5199171 27.5245902 29.8387097 27.5245902 31.1569879 27.5245902 32.2258065 28.8643767 32.2258065 30.5167157M46.5483871 30.5167157C46.5483871 32.1684102 45.4795685 33.5081967 44.1602616 33.5081967 42.8419834 33.5081967 41.7741935 32.1684102 41.7741935 30.5167157 41.7741935 28.8643767 42.8419834 27.5245902 44.1602616 27.5245902 45.4795685 27.5245902 46.5483871 28.8643767 46.5483871 30.5167157M59.6774194 30.5167157C59.6774194 32.1684102 58.6093452 33.5081967 57.2898083 33.5081967 55.9718142 33.5081967 54.9032258 32.1684102 54.9032258 30.5167157 54.9032258 28.8643767 55.9718142 27.5245902 57.2898083 27.5245902 58.6093452 27.5245902 59.6774194 28.8643767 59.6774194 30.5167157M4.77419355 43.6800056C4.77419355 45.3323446 3.7056052 46.6721311 2.3860683 46.6721311 1.06858834 46.6721311 0 45.3323446 0 43.6800056 0 42.0283111 1.06858834 40.6885246 2.3860683 40.6885246 3.7056052 40.6885246 4.77419355 42.0283111 4.77419355 43.6800056M19.0967742 43.6800056C19.0967742 45.3323446 18.0281858 46.6721311 16.7091632 46.6721311 15.391169 46.6721311 14.3225806 45.3323446 14.3225806 43.6800056 14.3225806 42.0283111 15.391169 40.6885246 16.7091632 40.6885246 18.0281858 40.6885246 19.0967742 42.0283111 19.0967742 43.6800056M32.2258065 43.6800056C32.2258065 45.3323446 31.1569879 46.6721311 29.8387097 46.6721311 28.5199171 46.6721311 27.4516129 45.3323446 27.4516129 43.6800056 27.4516129 42.0283111 28.5199171 40.6885246 29.8387097 40.6885246 31.1569879 40.6885246 32.2258065 42.0283111 32.2258065 43.6800056M46.5483871 43.6800056C46.5483871 45.3323446 45.4795685 46.6721311 44.1602616 46.6721311 42.8419834 46.6721311 41.7741935 45.3323446 41.7741935 43.6800056 41.7741935 42.0283111 42.8419834 40.6885246 44.1602616 40.6885246 45.4795685 40.6885246 46.5483871 42.0283111 46.5483871 43.6800056M59.6774194 43.6800056C59.6774194 45.3323446 58.6093452 46.6721311 57.2898083 46.6721311 55.9718142 46.6721311 54.9032258 45.3323446 54.9032258 43.6800056 54.9032258 42.0283111 55.9718142 40.6885246 57.2898083 40.6885246 58.6093452 40.6885246 59.6774194 42.0283111 59.6774194 43.6800056M4.77419355 57.442623C4.77419355 58.7641209 3.7056052 59.8360656 2.3860683 59.8360656 1.06858834 59.8360656 0 58.7641209 0 57.442623 0 56.1206094 1.06858834 55.0491803 2.3860683 55.0491803 3.7056052 55.0491803 4.77419355 56.1206094 4.77419355 57.442623M19.0967742 57.442623C19.0967742 58.7641209 18.0281858 59.8360656 16.7091632 59.8360656 15.391169 59.8360656 14.3225806 58.7641209 14.3225806 57.442623 14.3225806 56.1206094 15.391169 55.0491803 16.7091632 55.0491803 18.0281858 55.0491803 19.0967742 56.1206094 19.0967742 57.442623M32.2258065 57.442623C32.2258065 58.7641209 31.1569879 59.8360656 29.8387097 59.8360656 28.5199171 59.8360656 27.4516129 58.7641209 27.4516129 57.442623 27.4516129 56.1206094 28.5199171 55.0491803 29.8387097 55.0491803 31.1569879 55.0491803 32.2258065 56.1206094 32.2258065 57.442623M46.5483871 57.442623C46.5483871 58.7641209 45.4795685 59.8360656 44.1602616 59.8360656 42.8419834 59.8360656 41.7741935 58.7641209 41.7741935 57.442623 41.7741935 56.1206094 42.8419834 55.0491803 44.1602616 55.0491803 45.4795685 55.0491803 46.5483871 56.1206094 46.5483871 57.442623M59.6774194 57.442623C59.6774194 58.7641209 58.6093452 59.8360656 57.2898083 59.8360656 55.9718142 59.8360656 54.9032258 58.7641209 54.9032258 57.442623 54.9032258 56.1206094 55.9718142 55.0491803 57.2898083 55.0491803 58.6093452 55.0491803 59.6774194 56.1206094 59.6774194 57.442623M4.77419355 70.6065574C4.77419355 71.9285709 3.7056052 73 2.3860683 73 1.06858834 73 0 71.9285709 0 70.6065574 0 69.2845438 1.06858834 68.2131148 2.3860683 68.2131148 3.7056052 68.2131148 4.77419355 69.2845438 4.77419355 70.6065574M19.0967742 70.6065574C19.0967742 71.9285709 18.0281858 73 16.7091632 73 15.391169 73 14.3225806 71.9285709 14.3225806 70.6065574 14.3225806 69.2845438 15.391169 68.2131148 16.7091632 68.2131148 18.0281858 68.2131148 19.0967742 69.2845438 19.0967742 70.6065574M32.2258065 70.6065574C32.2258065 71.9285709 31.1569879 73 29.8387097 73 28.5199171 73 27.4516129 71.9285709 27.4516129 70.6065574 27.4516129 69.2845438 28.5199171 68.2131148 29.8387097 68.2131148 31.1569879 68.2131148 32.2258065 69.2845438 32.2258065 70.6065574M46.5483871 70.6065574C46.5483871 71.9285709 45.4795685 73 44.1602616 73 42.8419834 73 41.7741935 71.9285709 41.7741935 70.6065574 41.7741935 69.2845438 42.8419834 68.2131148 44.1602616 68.2131148 45.4795685 68.2131148 46.5483871 69.2845438 46.5483871 70.6065574M59.6774194 70.6065574C59.6774194 71.9285709 58.6093452 73 57.2898083 73 55.9718142 73 54.9032258 71.9285709 54.9032258 70.6065574 54.9032258 69.2845438 55.9718142 68.2131148 57.2898083 68.2131148 58.6093452 68.2131148 59.6774194 69.2845438 59.6774194 70.6065574M74 2.39344262C74 3.71545617 72.9319259 4.78688525 71.612389 4.78688525 70.2943948 4.78688525 69.2258065 3.71545617 69.2258065 2.39344262 69.2258065 1.07142908 70.2943948 0 71.612389 0 72.9319259 0 74 1.07142908 74 2.39344262M74 15.557377C74 16.8793906 72.9319259 17.9508197 71.612389 17.9508197 70.2943948 17.9508197 69.2258065 16.8793906 69.2258065 15.557377 69.2258065 14.2358791 70.2943948 13.1639344 71.612389 13.1639344 72.9319259 13.1639344 74 14.2358791 74 15.557377M74 30.5167157C74 32.1684102 72.9319259 33.5081967 71.612389 33.5081967 70.2943948 33.5081967 69.2258065 32.1684102 69.2258065 30.5167157 69.2258065 28.8643767 70.2943948 27.5245902 71.612389 27.5245902 72.9319259 27.5245902 74 28.8643767 74 30.5167157M74 43.6800056C74 45.3323446 72.9319259 46.6721311 71.612389 46.6721311 70.2943948 46.6721311 69.2258065 45.3323446 69.2258065 43.6800056 69.2258065 42.0283111 70.2943948 40.6885246 71.612389 40.6885246 72.9319259 40.6885246 74 42.0283111 74 43.6800056M74 57.442623C74 58.7641209 72.9319259 59.8360656 71.612389 59.8360656 70.2943948 59.8360656 69.2258065 58.7641209 69.2258065 57.442623 69.2258065 56.1206094 70.2943948 55.0491803 71.612389 55.0491803 72.9319259 55.0491803 74 56.1206094 74 57.442623M74 70.6065574C74 71.9285709 72.9319259 73 71.612389 73 70.2943948 73 69.2258065 71.9285709 69.2258065 70.6065574 69.2258065 69.2845438 70.2943948 68.2131148 71.612389 68.2131148 72.9319259 68.2131148 74 69.2845438 74 70.6065574" transform="translate(84)"/>
  </g>
</svg>
