<svg xmlns="http://www.w3.org/2000/svg" width="116" height="116" viewBox="0 0 116 116">
  <g fill="none" fill-rule="evenodd" transform="translate(2 2)">
    <path stroke="#C0C6D3" stroke-dasharray="0 11" stroke-linecap="round" stroke-width="3" d="M56,112 C86.927946,112 112,86.927946 112,56 C112,25.072054 86.927946,0 56,0 C25.072054,0 0,25.072054 0,56 C0,86.927946 25.072054,112 56,112 Z"/>
    <circle cx="56" cy="56" r="49" fill="#545F75"/>
    <g stroke="#FFF" stroke-width="2" transform="translate(37 38)">
      <path d="M24 4L34 14M20 5.14931014C15.0607251 2.93033748 9.11195106 3.92428907 5.07818173 8.13292879 4.25046004 8.99635257 3.56816034 9.94973471 3 10.9542696L8.79574278 17M32.8128147 18C35.081938 22.9360269 34.0965102 28.8888889 29.8714889 32.9309764 29.0101195 33.7550505 28.0590058 34.4343434 27.056861 35L21 29.2053872"/>
      <path stroke-linecap="square" d="M15.8462877 32L6 22.1537123C6 22.1537123 14.4103345 1.2305684 38 0 36.6667392 23.4869731 15.8462877 32 15.8462877 32zM0 33.5C0 31.0151 2.0151 29 4.5 29 6.9849 29 9 31.0151 9 33.5 9 35.9849 6.9849 38 4.5 38 3.4875 38 0 38 0 38 0 38 0 34.9733 0 33.5z"/>
      <circle cx="21.5" cy="16.5" r="3.5" stroke-linecap="square"/>
    </g>
  </g>
</svg>
