<svg xmlns="http://www.w3.org/2000/svg" width="116" height="116" viewBox="0 0 116 116">
  <g fill="none" fill-rule="evenodd" transform="translate(2 2)">
    <path stroke="#C0C6D3" stroke-dasharray="0 11" stroke-linecap="round" stroke-width="3" d="M56,112 C86.927946,112 112,86.927946 112,56 C112,25.072054 86.927946,0 56,0 C25.072054,0 0,25.072054 0,56 C0,86.927946 25.072054,112 56,112 Z"/>
    <circle cx="56" cy="56" r="49" fill="#545F75"/>
    <g stroke="#FFF" stroke-width="2" transform="translate(36 36)">
      <path d="M4.5 9L4.5 15M9 20.5L14 20.5M22 23L30 32M29 35.5L24 35.5"/>
      <circle cx="4.5" cy="4.5" r="4.5" stroke-linecap="square"/>
      <circle cx="19.5" cy="4.5" r="4.5" stroke-linecap="square"/>
      <circle cx="33.5" cy="4.5" r="4.5" stroke-linecap="square"/>
      <circle cx="4.5" cy="20.5" r="4.5" stroke-linecap="square"/>
      <circle cx="19.5" cy="20.5" r="4.5" stroke-linecap="square"/>
      <circle cx="33.5" cy="20.5" r="4.5" stroke-linecap="square"/>
      <circle cx="4.5" cy="35.5" r="4.5" stroke-linecap="square"/>
      <circle cx="19.5" cy="35.5" r="4.5" stroke-linecap="square"/>
      <circle cx="33.5" cy="35.5" r="4.5" stroke-linecap="square"/>
    </g>
  </g>
</svg>
