<?xml version="1.0" encoding="utf-8"?>
<!-- Generator: Adobe Illustrator 22.1.0, SVG Export Plug-In . SVG Version: 6.00 Build 0)  -->
<svg version="1.1" id="Layer_1" xmlns="http://www.w3.org/2000/svg" xmlns:xlink="http://www.w3.org/1999/xlink" x="0px" y="0px"
	 viewBox="0 0 1920 996" style="enable-background:new 0 0 1920 996;" xml:space="preserve">
<style type="text/css">
	.st0{opacity:2.000000e-02;fill:#E5EBEF;enable-background:new    ;}
	.st1{opacity:0.132;}
	.st2{fill:#1B8BC8;}
	.st3{opacity:0.299;}
	.st4{fill:#FC5C42;}
</style>
<g>
	<rect x="493" y="259" class="st0" width="159" height="159"/>
	<g transform="translate(463 295)" class="st1">
		<path class="st2" d="M4.8,2.4c0,1.3-1.1,2.4-2.4,2.4C1.1,4.8,0,3.7,0,2.4S1.1,0,2.4,0C3.7,0,4.8,1.1,4.8,2.4 M19.1,2.4
			c0,1.3-1.1,2.4-2.4,2.4c-1.3,0-2.4-1.1-2.4-2.4S15.4,0,16.7,0C18,0,19.1,1.1,19.1,2.4 M32.2,2.4c0,1.3-1.1,2.4-2.4,2.4
			c-1.3,0-2.4-1.1-2.4-2.4S28.5,0,29.8,0C31.2,0,32.2,1.1,32.2,2.4 M46.5,2.4c0,1.3-1.1,2.4-2.4,2.4c-1.3,0-2.4-1.1-2.4-2.4
			S42.8,0,44.2,0C45.5,0,46.5,1.1,46.5,2.4 M59.7,2.4c0,1.3-1.1,2.4-2.4,2.4c-1.3,0-2.4-1.1-2.4-2.4S56,0,57.3,0
			C58.6,0,59.7,1.1,59.7,2.4 M4.8,15.6c0,1.3-1.1,2.4-2.4,2.4C1.1,18,0,16.9,0,15.6c0-1.3,1.1-2.4,2.4-2.4
			C3.7,13.2,4.8,14.2,4.8,15.6 M19.1,15.6c0,1.3-1.1,2.4-2.4,2.4c-1.3,0-2.4-1.1-2.4-2.4c0-1.3,1.1-2.4,2.4-2.4
			C18,13.2,19.1,14.2,19.1,15.6 M32.2,15.6c0,1.3-1.1,2.4-2.4,2.4c-1.3,0-2.4-1.1-2.4-2.4c0-1.3,1.1-2.4,2.4-2.4
			C31.2,13.2,32.2,14.2,32.2,15.6 M46.5,15.6c0,1.3-1.1,2.4-2.4,2.4c-1.3,0-2.4-1.1-2.4-2.4c0-1.3,1.1-2.4,2.4-2.4
			C45.5,13.2,46.5,14.2,46.5,15.6 M59.7,15.6c0,1.3-1.1,2.4-2.4,2.4c-1.3,0-2.4-1.1-2.4-2.4c0-1.3,1.1-2.4,2.4-2.4
			C58.6,13.2,59.7,14.2,59.7,15.6 M4.8,30.5c0,1.7-1.1,3-2.4,3c-1.3,0-2.4-1.3-2.4-3c0-1.7,1.1-3,2.4-3C3.7,27.5,4.8,28.9,4.8,30.5
			 M19.1,30.5c0,1.7-1.1,3-2.4,3c-1.3,0-2.4-1.3-2.4-3c0-1.7,1.1-3,2.4-3C18,27.5,19.1,28.9,19.1,30.5 M32.2,30.5c0,1.7-1.1,3-2.4,3
			c-1.3,0-2.4-1.3-2.4-3c0-1.7,1.1-3,2.4-3C31.2,27.5,32.2,28.9,32.2,30.5 M46.5,30.5c0,1.7-1.1,3-2.4,3c-1.3,0-2.4-1.3-2.4-3
			c0-1.7,1.1-3,2.4-3C45.5,27.5,46.5,28.9,46.5,30.5 M59.7,30.5c0,1.7-1.1,3-2.4,3c-1.3,0-2.4-1.3-2.4-3c0-1.7,1.1-3,2.4-3
			C58.6,27.5,59.7,28.9,59.7,30.5 M4.8,43.7c0,1.7-1.1,3-2.4,3c-1.3,0-2.4-1.3-2.4-3c0-1.7,1.1-3,2.4-3C3.7,40.7,4.8,42,4.8,43.7
			 M19.1,43.7c0,1.7-1.1,3-2.4,3c-1.3,0-2.4-1.3-2.4-3c0-1.7,1.1-3,2.4-3C18,40.7,19.1,42,19.1,43.7 M32.2,43.7c0,1.7-1.1,3-2.4,3
			c-1.3,0-2.4-1.3-2.4-3c0-1.7,1.1-3,2.4-3C31.2,40.7,32.2,42,32.2,43.7 M46.5,43.7c0,1.7-1.1,3-2.4,3c-1.3,0-2.4-1.3-2.4-3
			c0-1.7,1.1-3,2.4-3C45.5,40.7,46.5,42,46.5,43.7 M59.7,43.7c0,1.7-1.1,3-2.4,3c-1.3,0-2.4-1.3-2.4-3c0-1.7,1.1-3,2.4-3
			C58.6,40.7,59.7,42,59.7,43.7 M4.8,57.4c0,1.3-1.1,2.4-2.4,2.4c-1.3,0-2.4-1.1-2.4-2.4C0,56.1,1.1,55,2.4,55
			C3.7,55,4.8,56.1,4.8,57.4 M19.1,57.4c0,1.3-1.1,2.4-2.4,2.4c-1.3,0-2.4-1.1-2.4-2.4c0-1.3,1.1-2.4,2.4-2.4
			C18,55,19.1,56.1,19.1,57.4 M32.2,57.4c0,1.3-1.1,2.4-2.4,2.4c-1.3,0-2.4-1.1-2.4-2.4c0-1.3,1.1-2.4,2.4-2.4
			C31.2,55,32.2,56.1,32.2,57.4 M46.5,57.4c0,1.3-1.1,2.4-2.4,2.4c-1.3,0-2.4-1.1-2.4-2.4c0-1.3,1.1-2.4,2.4-2.4
			C45.5,55,46.5,56.1,46.5,57.4 M59.7,57.4c0,1.3-1.1,2.4-2.4,2.4c-1.3,0-2.4-1.1-2.4-2.4c0-1.3,1.1-2.4,2.4-2.4
			C58.6,55,59.7,56.1,59.7,57.4 M4.8,70.6c0,1.3-1.1,2.4-2.4,2.4C1.1,73,0,71.9,0,70.6s1.1-2.4,2.4-2.4C3.7,68.2,4.8,69.3,4.8,70.6
			 M19.1,70.6c0,1.3-1.1,2.4-2.4,2.4c-1.3,0-2.4-1.1-2.4-2.4s1.1-2.4,2.4-2.4C18,68.2,19.1,69.3,19.1,70.6 M32.2,70.6
			c0,1.3-1.1,2.4-2.4,2.4c-1.3,0-2.4-1.1-2.4-2.4s1.1-2.4,2.4-2.4C31.2,68.2,32.2,69.3,32.2,70.6 M46.5,70.6c0,1.3-1.1,2.4-2.4,2.4
			c-1.3,0-2.4-1.1-2.4-2.4s1.1-2.4,2.4-2.4C45.5,68.2,46.5,69.3,46.5,70.6 M59.7,70.6c0,1.3-1.1,2.4-2.4,2.4c-1.3,0-2.4-1.1-2.4-2.4
			s1.1-2.4,2.4-2.4C58.6,68.2,59.7,69.3,59.7,70.6 M74,2.4c0,1.3-1.1,2.4-2.4,2.4c-1.3,0-2.4-1.1-2.4-2.4S70.3,0,71.6,0
			C72.9,0,74,1.1,74,2.4 M74,15.6c0,1.3-1.1,2.4-2.4,2.4c-1.3,0-2.4-1.1-2.4-2.4c0-1.3,1.1-2.4,2.4-2.4C72.9,13.2,74,14.2,74,15.6
			 M74,30.5c0,1.7-1.1,3-2.4,3c-1.3,0-2.4-1.3-2.4-3c0-1.7,1.1-3,2.4-3C72.9,27.5,74,28.9,74,30.5 M74,43.7c0,1.7-1.1,3-2.4,3
			c-1.3,0-2.4-1.3-2.4-3c0-1.7,1.1-3,2.4-3C72.9,40.7,74,42,74,43.7 M74,57.4c0,1.3-1.1,2.4-2.4,2.4c-1.3,0-2.4-1.1-2.4-2.4
			c0-1.3,1.1-2.4,2.4-2.4C72.9,55,74,56.1,74,57.4 M74,70.6c0,1.3-1.1,2.4-2.4,2.4c-1.3,0-2.4-1.1-2.4-2.4s1.1-2.4,2.4-2.4
			C72.9,68.2,74,69.3,74,70.6"/>
		<path class="st2" d="M4.8,82.4c0,1.3-1.1,2.4-2.4,2.4c-1.3,0-2.4-1.1-2.4-2.4S1.1,80,2.4,80C3.7,80,4.8,81.1,4.8,82.4 M19.1,82.4
			c0,1.3-1.1,2.4-2.4,2.4c-1.3,0-2.4-1.1-2.4-2.4s1.1-2.4,2.4-2.4C18,80,19.1,81.1,19.1,82.4 M32.2,82.4c0,1.3-1.1,2.4-2.4,2.4
			c-1.3,0-2.4-1.1-2.4-2.4s1.1-2.4,2.4-2.4C31.2,80,32.2,81.1,32.2,82.4 M46.5,82.4c0,1.3-1.1,2.4-2.4,2.4c-1.3,0-2.4-1.1-2.4-2.4
			s1.1-2.4,2.4-2.4C45.5,80,46.5,81.1,46.5,82.4 M59.7,82.4c0,1.3-1.1,2.4-2.4,2.4c-1.3,0-2.4-1.1-2.4-2.4S56,80,57.3,80
			C58.6,80,59.7,81.1,59.7,82.4 M4.8,95.6c0,1.3-1.1,2.4-2.4,2.4C1.1,98,0,96.9,0,95.6c0-1.3,1.1-2.4,2.4-2.4
			C3.7,93.2,4.8,94.2,4.8,95.6 M19.1,95.6c0,1.3-1.1,2.4-2.4,2.4c-1.3,0-2.4-1.1-2.4-2.4c0-1.3,1.1-2.4,2.4-2.4
			C18,93.2,19.1,94.2,19.1,95.6 M32.2,95.6c0,1.3-1.1,2.4-2.4,2.4c-1.3,0-2.4-1.1-2.4-2.4c0-1.3,1.1-2.4,2.4-2.4
			C31.2,93.2,32.2,94.2,32.2,95.6 M46.5,95.6c0,1.3-1.1,2.4-2.4,2.4c-1.3,0-2.4-1.1-2.4-2.4c0-1.3,1.1-2.4,2.4-2.4
			C45.5,93.2,46.5,94.2,46.5,95.6 M59.7,95.6c0,1.3-1.1,2.4-2.4,2.4c-1.3,0-2.4-1.1-2.4-2.4c0-1.3,1.1-2.4,2.4-2.4
			C58.6,93.2,59.7,94.2,59.7,95.6 M4.8,110.5c0,1.7-1.1,3-2.4,3c-1.3,0-2.4-1.3-2.4-3c0-1.7,1.1-3,2.4-3
			C3.7,107.5,4.8,108.9,4.8,110.5 M19.1,110.5c0,1.7-1.1,3-2.4,3c-1.3,0-2.4-1.3-2.4-3c0-1.7,1.1-3,2.4-3
			C18,107.5,19.1,108.9,19.1,110.5 M32.2,110.5c0,1.7-1.1,3-2.4,3c-1.3,0-2.4-1.3-2.4-3c0-1.7,1.1-3,2.4-3
			C31.2,107.5,32.2,108.9,32.2,110.5 M46.5,110.5c0,1.7-1.1,3-2.4,3c-1.3,0-2.4-1.3-2.4-3c0-1.7,1.1-3,2.4-3
			C45.5,107.5,46.5,108.9,46.5,110.5 M59.7,110.5c0,1.7-1.1,3-2.4,3c-1.3,0-2.4-1.3-2.4-3c0-1.7,1.1-3,2.4-3
			C58.6,107.5,59.7,108.9,59.7,110.5 M4.8,123.7c0,1.7-1.1,3-2.4,3c-1.3,0-2.4-1.3-2.4-3c0-1.7,1.1-3,2.4-3
			C3.7,120.7,4.8,122,4.8,123.7 M19.1,123.7c0,1.7-1.1,3-2.4,3c-1.3,0-2.4-1.3-2.4-3c0-1.7,1.1-3,2.4-3
			C18,120.7,19.1,122,19.1,123.7 M32.2,123.7c0,1.7-1.1,3-2.4,3c-1.3,0-2.4-1.3-2.4-3c0-1.7,1.1-3,2.4-3
			C31.2,120.7,32.2,122,32.2,123.7 M46.5,123.7c0,1.7-1.1,3-2.4,3c-1.3,0-2.4-1.3-2.4-3c0-1.7,1.1-3,2.4-3
			C45.5,120.7,46.5,122,46.5,123.7 M59.7,123.7c0,1.7-1.1,3-2.4,3c-1.3,0-2.4-1.3-2.4-3c0-1.7,1.1-3,2.4-3
			C58.6,120.7,59.7,122,59.7,123.7 M4.8,137.4c0,1.3-1.1,2.4-2.4,2.4c-1.3,0-2.4-1.1-2.4-2.4c0-1.3,1.1-2.4,2.4-2.4
			C3.7,135,4.8,136.1,4.8,137.4 M19.1,137.4c0,1.3-1.1,2.4-2.4,2.4c-1.3,0-2.4-1.1-2.4-2.4c0-1.3,1.1-2.4,2.4-2.4
			C18,135,19.1,136.1,19.1,137.4 M32.2,137.4c0,1.3-1.1,2.4-2.4,2.4c-1.3,0-2.4-1.1-2.4-2.4c0-1.3,1.1-2.4,2.4-2.4
			C31.2,135,32.2,136.1,32.2,137.4 M46.5,137.4c0,1.3-1.1,2.4-2.4,2.4c-1.3,0-2.4-1.1-2.4-2.4c0-1.3,1.1-2.4,2.4-2.4
			C45.5,135,46.5,136.1,46.5,137.4 M59.7,137.4c0,1.3-1.1,2.4-2.4,2.4c-1.3,0-2.4-1.1-2.4-2.4c0-1.3,1.1-2.4,2.4-2.4
			C58.6,135,59.7,136.1,59.7,137.4 M4.8,150.6c0,1.3-1.1,2.4-2.4,2.4c-1.3,0-2.4-1.1-2.4-2.4c0-1.3,1.1-2.4,2.4-2.4
			C3.7,148.2,4.8,149.3,4.8,150.6 M19.1,150.6c0,1.3-1.1,2.4-2.4,2.4c-1.3,0-2.4-1.1-2.4-2.4c0-1.3,1.1-2.4,2.4-2.4
			C18,148.2,19.1,149.3,19.1,150.6 M32.2,150.6c0,1.3-1.1,2.4-2.4,2.4c-1.3,0-2.4-1.1-2.4-2.4c0-1.3,1.1-2.4,2.4-2.4
			C31.2,148.2,32.2,149.3,32.2,150.6 M46.5,150.6c0,1.3-1.1,2.4-2.4,2.4c-1.3,0-2.4-1.1-2.4-2.4c0-1.3,1.1-2.4,2.4-2.4
			C45.5,148.2,46.5,149.3,46.5,150.6 M59.7,150.6c0,1.3-1.1,2.4-2.4,2.4c-1.3,0-2.4-1.1-2.4-2.4c0-1.3,1.1-2.4,2.4-2.4
			C58.6,148.2,59.7,149.3,59.7,150.6 M74,82.4c0,1.3-1.1,2.4-2.4,2.4c-1.3,0-2.4-1.1-2.4-2.4s1.1-2.4,2.4-2.4
			C72.9,80,74,81.1,74,82.4 M74,95.6c0,1.3-1.1,2.4-2.4,2.4c-1.3,0-2.4-1.1-2.4-2.4c0-1.3,1.1-2.4,2.4-2.4
			C72.9,93.2,74,94.2,74,95.6 M74,110.5c0,1.7-1.1,3-2.4,3c-1.3,0-2.4-1.3-2.4-3c0-1.7,1.1-3,2.4-3C72.9,107.5,74,108.9,74,110.5
			 M74,123.7c0,1.7-1.1,3-2.4,3c-1.3,0-2.4-1.3-2.4-3c0-1.7,1.1-3,2.4-3C72.9,120.7,74,122,74,123.7 M74,137.4
			c0,1.3-1.1,2.4-2.4,2.4c-1.3,0-2.4-1.1-2.4-2.4c0-1.3,1.1-2.4,2.4-2.4C72.9,135,74,136.1,74,137.4 M74,150.6
			c0,1.3-1.1,2.4-2.4,2.4c-1.3,0-2.4-1.1-2.4-2.4c0-1.3,1.1-2.4,2.4-2.4C72.9,148.2,74,149.3,74,150.6"/>
		<path class="st2" d="M88.8,2.4c0,1.3-1.1,2.4-2.4,2.4c-1.3,0-2.4-1.1-2.4-2.4S85.1,0,86.4,0C87.7,0,88.8,1.1,88.8,2.4 M103.1,2.4
			c0,1.3-1.1,2.4-2.4,2.4c-1.3,0-2.4-1.1-2.4-2.4S99.4,0,100.7,0C102,0,103.1,1.1,103.1,2.4 M116.2,2.4c0,1.3-1.1,2.4-2.4,2.4
			c-1.3,0-2.4-1.1-2.4-2.4s1.1-2.4,2.4-2.4C115.2,0,116.2,1.1,116.2,2.4 M130.5,2.4c0,1.3-1.1,2.4-2.4,2.4c-1.3,0-2.4-1.1-2.4-2.4
			s1.1-2.4,2.4-2.4C129.5,0,130.5,1.1,130.5,2.4 M143.7,2.4c0,1.3-1.1,2.4-2.4,2.4c-1.3,0-2.4-1.1-2.4-2.4S140,0,141.3,0
			C142.6,0,143.7,1.1,143.7,2.4 M88.8,15.6c0,1.3-1.1,2.4-2.4,2.4c-1.3,0-2.4-1.1-2.4-2.4c0-1.3,1.1-2.4,2.4-2.4
			C87.7,13.2,88.8,14.2,88.8,15.6 M103.1,15.6c0,1.3-1.1,2.4-2.4,2.4c-1.3,0-2.4-1.1-2.4-2.4c0-1.3,1.1-2.4,2.4-2.4
			C102,13.2,103.1,14.2,103.1,15.6 M116.2,15.6c0,1.3-1.1,2.4-2.4,2.4c-1.3,0-2.4-1.1-2.4-2.4c0-1.3,1.1-2.4,2.4-2.4
			C115.2,13.2,116.2,14.2,116.2,15.6 M130.5,15.6c0,1.3-1.1,2.4-2.4,2.4c-1.3,0-2.4-1.1-2.4-2.4c0-1.3,1.1-2.4,2.4-2.4
			C129.5,13.2,130.5,14.2,130.5,15.6 M143.7,15.6c0,1.3-1.1,2.4-2.4,2.4c-1.3,0-2.4-1.1-2.4-2.4c0-1.3,1.1-2.4,2.4-2.4
			C142.6,13.2,143.7,14.2,143.7,15.6 M88.8,30.5c0,1.7-1.1,3-2.4,3c-1.3,0-2.4-1.3-2.4-3c0-1.7,1.1-3,2.4-3
			C87.7,27.5,88.8,28.9,88.8,30.5 M103.1,30.5c0,1.7-1.1,3-2.4,3c-1.3,0-2.4-1.3-2.4-3c0-1.7,1.1-3,2.4-3
			C102,27.5,103.1,28.9,103.1,30.5 M116.2,30.5c0,1.7-1.1,3-2.4,3c-1.3,0-2.4-1.3-2.4-3c0-1.7,1.1-3,2.4-3
			C115.2,27.5,116.2,28.9,116.2,30.5 M130.5,30.5c0,1.7-1.1,3-2.4,3c-1.3,0-2.4-1.3-2.4-3c0-1.7,1.1-3,2.4-3
			C129.5,27.5,130.5,28.9,130.5,30.5 M143.7,30.5c0,1.7-1.1,3-2.4,3c-1.3,0-2.4-1.3-2.4-3c0-1.7,1.1-3,2.4-3
			C142.6,27.5,143.7,28.9,143.7,30.5 M88.8,43.7c0,1.7-1.1,3-2.4,3c-1.3,0-2.4-1.3-2.4-3c0-1.7,1.1-3,2.4-3
			C87.7,40.7,88.8,42,88.8,43.7 M103.1,43.7c0,1.7-1.1,3-2.4,3c-1.3,0-2.4-1.3-2.4-3c0-1.7,1.1-3,2.4-3
			C102,40.7,103.1,42,103.1,43.7 M116.2,43.7c0,1.7-1.1,3-2.4,3c-1.3,0-2.4-1.3-2.4-3c0-1.7,1.1-3,2.4-3
			C115.2,40.7,116.2,42,116.2,43.7 M130.5,43.7c0,1.7-1.1,3-2.4,3c-1.3,0-2.4-1.3-2.4-3c0-1.7,1.1-3,2.4-3
			C129.5,40.7,130.5,42,130.5,43.7 M143.7,43.7c0,1.7-1.1,3-2.4,3c-1.3,0-2.4-1.3-2.4-3c0-1.7,1.1-3,2.4-3
			C142.6,40.7,143.7,42,143.7,43.7 M88.8,57.4c0,1.3-1.1,2.4-2.4,2.4c-1.3,0-2.4-1.1-2.4-2.4c0-1.3,1.1-2.4,2.4-2.4
			C87.7,55,88.8,56.1,88.8,57.4 M103.1,57.4c0,1.3-1.1,2.4-2.4,2.4c-1.3,0-2.4-1.1-2.4-2.4c0-1.3,1.1-2.4,2.4-2.4
			C102,55,103.1,56.1,103.1,57.4 M116.2,57.4c0,1.3-1.1,2.4-2.4,2.4c-1.3,0-2.4-1.1-2.4-2.4c0-1.3,1.1-2.4,2.4-2.4
			C115.2,55,116.2,56.1,116.2,57.4 M130.5,57.4c0,1.3-1.1,2.4-2.4,2.4c-1.3,0-2.4-1.1-2.4-2.4c0-1.3,1.1-2.4,2.4-2.4
			C129.5,55,130.5,56.1,130.5,57.4 M143.7,57.4c0,1.3-1.1,2.4-2.4,2.4c-1.3,0-2.4-1.1-2.4-2.4c0-1.3,1.1-2.4,2.4-2.4
			C142.6,55,143.7,56.1,143.7,57.4 M88.8,70.6c0,1.3-1.1,2.4-2.4,2.4c-1.3,0-2.4-1.1-2.4-2.4s1.1-2.4,2.4-2.4
			C87.7,68.2,88.8,69.3,88.8,70.6 M103.1,70.6c0,1.3-1.1,2.4-2.4,2.4c-1.3,0-2.4-1.1-2.4-2.4s1.1-2.4,2.4-2.4
			C102,68.2,103.1,69.3,103.1,70.6 M116.2,70.6c0,1.3-1.1,2.4-2.4,2.4c-1.3,0-2.4-1.1-2.4-2.4s1.1-2.4,2.4-2.4
			C115.2,68.2,116.2,69.3,116.2,70.6 M130.5,70.6c0,1.3-1.1,2.4-2.4,2.4c-1.3,0-2.4-1.1-2.4-2.4s1.1-2.4,2.4-2.4
			C129.5,68.2,130.5,69.3,130.5,70.6 M143.7,70.6c0,1.3-1.1,2.4-2.4,2.4c-1.3,0-2.4-1.1-2.4-2.4s1.1-2.4,2.4-2.4
			C142.6,68.2,143.7,69.3,143.7,70.6 M158,2.4c0,1.3-1.1,2.4-2.4,2.4c-1.3,0-2.4-1.1-2.4-2.4s1.1-2.4,2.4-2.4
			C156.9,0,158,1.1,158,2.4 M158,15.6c0,1.3-1.1,2.4-2.4,2.4c-1.3,0-2.4-1.1-2.4-2.4c0-1.3,1.1-2.4,2.4-2.4
			C156.9,13.2,158,14.2,158,15.6 M158,30.5c0,1.7-1.1,3-2.4,3c-1.3,0-2.4-1.3-2.4-3c0-1.7,1.1-3,2.4-3C156.9,27.5,158,28.9,158,30.5
			 M158,43.7c0,1.7-1.1,3-2.4,3c-1.3,0-2.4-1.3-2.4-3c0-1.7,1.1-3,2.4-3C156.9,40.7,158,42,158,43.7 M158,57.4
			c0,1.3-1.1,2.4-2.4,2.4c-1.3,0-2.4-1.1-2.4-2.4c0-1.3,1.1-2.4,2.4-2.4C156.9,55,158,56.1,158,57.4 M158,70.6
			c0,1.3-1.1,2.4-2.4,2.4c-1.3,0-2.4-1.1-2.4-2.4s1.1-2.4,2.4-2.4C156.9,68.2,158,69.3,158,70.6"/>
		<path class="st2" d="M88.8,82.4c0,1.3-1.1,2.4-2.4,2.4c-1.3,0-2.4-1.1-2.4-2.4s1.1-2.4,2.4-2.4C87.7,80,88.8,81.1,88.8,82.4
			 M103.1,82.4c0,1.3-1.1,2.4-2.4,2.4c-1.3,0-2.4-1.1-2.4-2.4s1.1-2.4,2.4-2.4C102,80,103.1,81.1,103.1,82.4 M116.2,82.4
			c0,1.3-1.1,2.4-2.4,2.4c-1.3,0-2.4-1.1-2.4-2.4s1.1-2.4,2.4-2.4C115.2,80,116.2,81.1,116.2,82.4 M130.5,82.4
			c0,1.3-1.1,2.4-2.4,2.4c-1.3,0-2.4-1.1-2.4-2.4s1.1-2.4,2.4-2.4C129.5,80,130.5,81.1,130.5,82.4 M143.7,82.4
			c0,1.3-1.1,2.4-2.4,2.4c-1.3,0-2.4-1.1-2.4-2.4s1.1-2.4,2.4-2.4C142.6,80,143.7,81.1,143.7,82.4 M88.8,95.6c0,1.3-1.1,2.4-2.4,2.4
			c-1.3,0-2.4-1.1-2.4-2.4c0-1.3,1.1-2.4,2.4-2.4C87.7,93.2,88.8,94.2,88.8,95.6 M103.1,95.6c0,1.3-1.1,2.4-2.4,2.4
			c-1.3,0-2.4-1.1-2.4-2.4c0-1.3,1.1-2.4,2.4-2.4C102,93.2,103.1,94.2,103.1,95.6 M116.2,95.6c0,1.3-1.1,2.4-2.4,2.4
			c-1.3,0-2.4-1.1-2.4-2.4c0-1.3,1.1-2.4,2.4-2.4C115.2,93.2,116.2,94.2,116.2,95.6 M130.5,95.6c0,1.3-1.1,2.4-2.4,2.4
			c-1.3,0-2.4-1.1-2.4-2.4c0-1.3,1.1-2.4,2.4-2.4C129.5,93.2,130.5,94.2,130.5,95.6 M143.7,95.6c0,1.3-1.1,2.4-2.4,2.4
			c-1.3,0-2.4-1.1-2.4-2.4c0-1.3,1.1-2.4,2.4-2.4C142.6,93.2,143.7,94.2,143.7,95.6 M88.8,110.5c0,1.7-1.1,3-2.4,3
			c-1.3,0-2.4-1.3-2.4-3c0-1.7,1.1-3,2.4-3C87.7,107.5,88.8,108.9,88.8,110.5 M103.1,110.5c0,1.7-1.1,3-2.4,3c-1.3,0-2.4-1.3-2.4-3
			c0-1.7,1.1-3,2.4-3C102,107.5,103.1,108.9,103.1,110.5 M116.2,110.5c0,1.7-1.1,3-2.4,3c-1.3,0-2.4-1.3-2.4-3c0-1.7,1.1-3,2.4-3
			C115.2,107.5,116.2,108.9,116.2,110.5 M130.5,110.5c0,1.7-1.1,3-2.4,3c-1.3,0-2.4-1.3-2.4-3c0-1.7,1.1-3,2.4-3
			C129.5,107.5,130.5,108.9,130.5,110.5 M143.7,110.5c0,1.7-1.1,3-2.4,3c-1.3,0-2.4-1.3-2.4-3c0-1.7,1.1-3,2.4-3
			C142.6,107.5,143.7,108.9,143.7,110.5 M88.8,123.7c0,1.7-1.1,3-2.4,3c-1.3,0-2.4-1.3-2.4-3c0-1.7,1.1-3,2.4-3
			C87.7,120.7,88.8,122,88.8,123.7 M103.1,123.7c0,1.7-1.1,3-2.4,3c-1.3,0-2.4-1.3-2.4-3c0-1.7,1.1-3,2.4-3
			C102,120.7,103.1,122,103.1,123.7 M116.2,123.7c0,1.7-1.1,3-2.4,3c-1.3,0-2.4-1.3-2.4-3c0-1.7,1.1-3,2.4-3
			C115.2,120.7,116.2,122,116.2,123.7 M130.5,123.7c0,1.7-1.1,3-2.4,3c-1.3,0-2.4-1.3-2.4-3c0-1.7,1.1-3,2.4-3
			C129.5,120.7,130.5,122,130.5,123.7 M143.7,123.7c0,1.7-1.1,3-2.4,3c-1.3,0-2.4-1.3-2.4-3c0-1.7,1.1-3,2.4-3
			C142.6,120.7,143.7,122,143.7,123.7 M88.8,137.4c0,1.3-1.1,2.4-2.4,2.4c-1.3,0-2.4-1.1-2.4-2.4c0-1.3,1.1-2.4,2.4-2.4
			C87.7,135,88.8,136.1,88.8,137.4 M103.1,137.4c0,1.3-1.1,2.4-2.4,2.4c-1.3,0-2.4-1.1-2.4-2.4c0-1.3,1.1-2.4,2.4-2.4
			C102,135,103.1,136.1,103.1,137.4 M116.2,137.4c0,1.3-1.1,2.4-2.4,2.4c-1.3,0-2.4-1.1-2.4-2.4c0-1.3,1.1-2.4,2.4-2.4
			C115.2,135,116.2,136.1,116.2,137.4 M130.5,137.4c0,1.3-1.1,2.4-2.4,2.4c-1.3,0-2.4-1.1-2.4-2.4c0-1.3,1.1-2.4,2.4-2.4
			C129.5,135,130.5,136.1,130.5,137.4 M143.7,137.4c0,1.3-1.1,2.4-2.4,2.4c-1.3,0-2.4-1.1-2.4-2.4c0-1.3,1.1-2.4,2.4-2.4
			C142.6,135,143.7,136.1,143.7,137.4 M88.8,150.6c0,1.3-1.1,2.4-2.4,2.4c-1.3,0-2.4-1.1-2.4-2.4c0-1.3,1.1-2.4,2.4-2.4
			C87.7,148.2,88.8,149.3,88.8,150.6 M103.1,150.6c0,1.3-1.1,2.4-2.4,2.4c-1.3,0-2.4-1.1-2.4-2.4c0-1.3,1.1-2.4,2.4-2.4
			C102,148.2,103.1,149.3,103.1,150.6 M116.2,150.6c0,1.3-1.1,2.4-2.4,2.4c-1.3,0-2.4-1.1-2.4-2.4c0-1.3,1.1-2.4,2.4-2.4
			C115.2,148.2,116.2,149.3,116.2,150.6 M130.5,150.6c0,1.3-1.1,2.4-2.4,2.4c-1.3,0-2.4-1.1-2.4-2.4c0-1.3,1.1-2.4,2.4-2.4
			C129.5,148.2,130.5,149.3,130.5,150.6 M143.7,150.6c0,1.3-1.1,2.4-2.4,2.4c-1.3,0-2.4-1.1-2.4-2.4c0-1.3,1.1-2.4,2.4-2.4
			C142.6,148.2,143.7,149.3,143.7,150.6 M158,82.4c0,1.3-1.1,2.4-2.4,2.4c-1.3,0-2.4-1.1-2.4-2.4s1.1-2.4,2.4-2.4
			C156.9,80,158,81.1,158,82.4 M158,95.6c0,1.3-1.1,2.4-2.4,2.4c-1.3,0-2.4-1.1-2.4-2.4c0-1.3,1.1-2.4,2.4-2.4
			C156.9,93.2,158,94.2,158,95.6 M158,110.5c0,1.7-1.1,3-2.4,3c-1.3,0-2.4-1.3-2.4-3c0-1.7,1.1-3,2.4-3
			C156.9,107.5,158,108.9,158,110.5 M158,123.7c0,1.7-1.1,3-2.4,3c-1.3,0-2.4-1.3-2.4-3c0-1.7,1.1-3,2.4-3
			C156.9,120.7,158,122,158,123.7 M158,137.4c0,1.3-1.1,2.4-2.4,2.4c-1.3,0-2.4-1.1-2.4-2.4c0-1.3,1.1-2.4,2.4-2.4
			C156.9,135,158,136.1,158,137.4 M158,150.6c0,1.3-1.1,2.4-2.4,2.4c-1.3,0-2.4-1.1-2.4-2.4c0-1.3,1.1-2.4,2.4-2.4
			C156.9,148.2,158,149.3,158,150.6"/>
	</g>
	<g transform="rotate(30 -174.863 2683.854)" class="st3">
		<path class="st4" d="M4.8,2.4c0,1.3-1.1,2.4-2.4,2.4C1.1,4.8,0,3.7,0,2.4S1.1,0,2.4,0C3.7,0,4.8,1.1,4.8,2.4 M19.1,2.4
			c0,1.3-1.1,2.4-2.4,2.4c-1.3,0-2.4-1.1-2.4-2.4c0-1.3,1.1-2.4,2.4-2.4C18,0,19.1,1.1,19.1,2.4 M32.2,2.4c0,1.3-1.1,2.4-2.4,2.4
			c-1.3,0-2.4-1.1-2.4-2.4S28.5,0,29.8,0C31.2,0,32.2,1.1,32.2,2.4 M46.5,2.4c0,1.3-1.1,2.4-2.4,2.4c-1.3,0-2.4-1.1-2.4-2.4
			S42.8,0,44.2,0C45.5,0,46.5,1.1,46.5,2.4 M59.7,2.4c0,1.3-1.1,2.4-2.4,2.4c-1.3,0-2.4-1.1-2.4-2.4S56,0,57.3,0
			C58.6,0,59.7,1.1,59.7,2.4 M4.8,15.6c0,1.3-1.1,2.4-2.4,2.4C1.1,18,0,16.9,0,15.6c0-1.3,1.1-2.4,2.4-2.4
			C3.7,13.2,4.8,14.2,4.8,15.6 M19.1,15.6c0,1.3-1.1,2.4-2.4,2.4c-1.3,0-2.4-1.1-2.4-2.4c0-1.3,1.1-2.4,2.4-2.4
			C18,13.2,19.1,14.2,19.1,15.6 M32.2,15.6c0,1.3-1.1,2.4-2.4,2.4c-1.3,0-2.4-1.1-2.4-2.4c0-1.3,1.1-2.4,2.4-2.4
			C31.2,13.2,32.2,14.2,32.2,15.6 M46.5,15.6c0,1.3-1.1,2.4-2.4,2.4c-1.3,0-2.4-1.1-2.4-2.4c0-1.3,1.1-2.4,2.4-2.4
			C45.5,13.2,46.5,14.2,46.5,15.6 M59.7,15.6c0,1.3-1.1,2.4-2.4,2.4c-1.3,0-2.4-1.1-2.4-2.4c0-1.3,1.1-2.4,2.4-2.4
			C58.6,13.2,59.7,14.2,59.7,15.6 M4.8,30.5c0,1.7-1.1,3-2.4,3c-1.3,0-2.4-1.3-2.4-3c0-1.7,1.1-3,2.4-3C3.7,27.5,4.8,28.9,4.8,30.5
			 M19.1,30.5c0,1.7-1.1,3-2.4,3c-1.3,0-2.4-1.3-2.4-3c0-1.7,1.1-3,2.4-3C18,27.5,19.1,28.9,19.1,30.5 M32.2,30.5c0,1.7-1.1,3-2.4,3
			c-1.3,0-2.4-1.3-2.4-3c0-1.7,1.1-3,2.4-3C31.2,27.5,32.2,28.9,32.2,30.5 M46.5,30.5c0,1.7-1.1,3-2.4,3c-1.3,0-2.4-1.3-2.4-3
			c0-1.7,1.1-3,2.4-3C45.5,27.5,46.5,28.9,46.5,30.5 M59.7,30.5c0,1.7-1.1,3-2.4,3c-1.3,0-2.4-1.3-2.4-3c0-1.7,1.1-3,2.4-3
			C58.6,27.5,59.7,28.9,59.7,30.5 M4.8,43.7c0,1.7-1.1,3-2.4,3c-1.3,0-2.4-1.3-2.4-3c0-1.7,1.1-3,2.4-3C3.7,40.7,4.8,42,4.8,43.7
			 M19.1,43.7c0,1.7-1.1,3-2.4,3c-1.3,0-2.4-1.3-2.4-3c0-1.7,1.1-3,2.4-3C18,40.7,19.1,42,19.1,43.7 M32.2,43.7c0,1.7-1.1,3-2.4,3
			c-1.3,0-2.4-1.3-2.4-3c0-1.7,1.1-3,2.4-3C31.2,40.7,32.2,42,32.2,43.7 M46.5,43.7c0,1.7-1.1,3-2.4,3c-1.3,0-2.4-1.3-2.4-3
			c0-1.7,1.1-3,2.4-3C45.5,40.7,46.5,42,46.5,43.7 M59.7,43.7c0,1.7-1.1,3-2.4,3c-1.3,0-2.4-1.3-2.4-3c0-1.7,1.1-3,2.4-3
			C58.6,40.7,59.7,42,59.7,43.7 M4.8,57.4c0,1.3-1.1,2.4-2.4,2.4c-1.3,0-2.4-1.1-2.4-2.4C0,56.1,1.1,55,2.4,55
			C3.7,55,4.8,56.1,4.8,57.4 M19.1,57.4c0,1.3-1.1,2.4-2.4,2.4c-1.3,0-2.4-1.1-2.4-2.4c0-1.3,1.1-2.4,2.4-2.4
			C18,55,19.1,56.1,19.1,57.4 M32.2,57.4c0,1.3-1.1,2.4-2.4,2.4c-1.3,0-2.4-1.1-2.4-2.4c0-1.3,1.1-2.4,2.4-2.4
			C31.2,55,32.2,56.1,32.2,57.4 M46.5,57.4c0,1.3-1.1,2.4-2.4,2.4c-1.3,0-2.4-1.1-2.4-2.4c0-1.3,1.1-2.4,2.4-2.4
			C45.5,55,46.5,56.1,46.5,57.4 M59.7,57.4c0,1.3-1.1,2.4-2.4,2.4c-1.3,0-2.4-1.1-2.4-2.4c0-1.3,1.1-2.4,2.4-2.4
			C58.6,55,59.7,56.1,59.7,57.4 M4.8,70.6c0,1.3-1.1,2.4-2.4,2.4C1.1,73,0,71.9,0,70.6c0-1.3,1.1-2.4,2.4-2.4
			C3.7,68.2,4.8,69.3,4.8,70.6 M19.1,70.6c0,1.3-1.1,2.4-2.4,2.4c-1.3,0-2.4-1.1-2.4-2.4s1.1-2.4,2.4-2.4
			C18,68.2,19.1,69.3,19.1,70.6 M32.2,70.6c0,1.3-1.1,2.4-2.4,2.4c-1.3,0-2.4-1.1-2.4-2.4s1.1-2.4,2.4-2.4
			C31.2,68.2,32.2,69.3,32.2,70.6 M46.5,70.6c0,1.3-1.1,2.4-2.4,2.4c-1.3,0-2.4-1.1-2.4-2.4s1.1-2.4,2.4-2.4
			C45.5,68.2,46.5,69.3,46.5,70.6 M59.7,70.6c0,1.3-1.1,2.4-2.4,2.4c-1.3,0-2.4-1.1-2.4-2.4s1.1-2.4,2.4-2.4
			C58.6,68.2,59.7,69.3,59.7,70.6 M74,2.4c0,1.3-1.1,2.4-2.4,2.4c-1.3,0-2.4-1.1-2.4-2.4S70.3,0,71.6,0C72.9,0,74,1.1,74,2.4
			 M74,15.6c0,1.3-1.1,2.4-2.4,2.4c-1.3,0-2.4-1.1-2.4-2.4c0-1.3,1.1-2.4,2.4-2.4C72.9,13.2,74,14.2,74,15.6 M74,30.5
			c0,1.7-1.1,3-2.4,3c-1.3,0-2.4-1.3-2.4-3c0-1.7,1.1-3,2.4-3C72.9,27.5,74,28.9,74,30.5 M74,43.7c0,1.7-1.1,3-2.4,3
			c-1.3,0-2.4-1.3-2.4-3c0-1.7,1.1-3,2.4-3C72.9,40.7,74,42,74,43.7 M74,57.4c0,1.3-1.1,2.4-2.4,2.4c-1.3,0-2.4-1.1-2.4-2.4
			c0-1.3,1.1-2.4,2.4-2.4C72.9,55,74,56.1,74,57.4 M74,70.6c0,1.3-1.1,2.4-2.4,2.4c-1.3,0-2.4-1.1-2.4-2.4s1.1-2.4,2.4-2.4
			C72.9,68.2,74,69.3,74,70.6"/>
		<path class="st4" d="M4.8,82.4c0,1.3-1.1,2.4-2.4,2.4c-1.3,0-2.4-1.1-2.4-2.4C0,81.1,1.1,80,2.4,80C3.7,80,4.8,81.1,4.8,82.4
			 M19.1,82.4c0,1.3-1.1,2.4-2.4,2.4c-1.3,0-2.4-1.1-2.4-2.4c0-1.3,1.1-2.4,2.4-2.4C18,80,19.1,81.1,19.1,82.4 M32.2,82.4
			c0,1.3-1.1,2.4-2.4,2.4c-1.3,0-2.4-1.1-2.4-2.4s1.1-2.4,2.4-2.4C31.2,80,32.2,81.1,32.2,82.4 M46.5,82.4c0,1.3-1.1,2.4-2.4,2.4
			c-1.3,0-2.4-1.1-2.4-2.4s1.1-2.4,2.4-2.4C45.5,80,46.5,81.1,46.5,82.4 M59.7,82.4c0,1.3-1.1,2.4-2.4,2.4c-1.3,0-2.4-1.1-2.4-2.4
			S56,80,57.3,80C58.6,80,59.7,81.1,59.7,82.4 M4.8,95.6c0,1.3-1.1,2.4-2.4,2.4C1.1,98,0,96.9,0,95.6c0-1.3,1.1-2.4,2.4-2.4
			C3.7,93.2,4.8,94.2,4.8,95.6 M19.1,95.6c0,1.3-1.1,2.4-2.4,2.4c-1.3,0-2.4-1.1-2.4-2.4c0-1.3,1.1-2.4,2.4-2.4
			C18,93.2,19.1,94.2,19.1,95.6 M32.2,95.6c0,1.3-1.1,2.4-2.4,2.4c-1.3,0-2.4-1.1-2.4-2.4c0-1.3,1.1-2.4,2.4-2.4
			C31.2,93.2,32.2,94.2,32.2,95.6 M46.5,95.6c0,1.3-1.1,2.4-2.4,2.4c-1.3,0-2.4-1.1-2.4-2.4c0-1.3,1.1-2.4,2.4-2.4
			C45.5,93.2,46.5,94.2,46.5,95.6 M59.7,95.6c0,1.3-1.1,2.4-2.4,2.4c-1.3,0-2.4-1.1-2.4-2.4c0-1.3,1.1-2.4,2.4-2.4
			C58.6,93.2,59.7,94.2,59.7,95.6 M4.8,110.5c0,1.7-1.1,3-2.4,3c-1.3,0-2.4-1.3-2.4-3c0-1.7,1.1-3,2.4-3
			C3.7,107.5,4.8,108.9,4.8,110.5 M19.1,110.5c0,1.7-1.1,3-2.4,3c-1.3,0-2.4-1.3-2.4-3c0-1.7,1.1-3,2.4-3
			C18,107.5,19.1,108.9,19.1,110.5 M32.2,110.5c0,1.7-1.1,3-2.4,3c-1.3,0-2.4-1.3-2.4-3c0-1.7,1.1-3,2.4-3
			C31.2,107.5,32.2,108.9,32.2,110.5 M46.5,110.5c0,1.7-1.1,3-2.4,3c-1.3,0-2.4-1.3-2.4-3c0-1.7,1.1-3,2.4-3
			C45.5,107.5,46.5,108.9,46.5,110.5 M59.7,110.5c0,1.7-1.1,3-2.4,3c-1.3,0-2.4-1.3-2.4-3c0-1.7,1.1-3,2.4-3
			C58.6,107.5,59.7,108.9,59.7,110.5 M4.8,123.7c0,1.7-1.1,3-2.4,3c-1.3,0-2.4-1.3-2.4-3c0-1.7,1.1-3,2.4-3
			C3.7,120.7,4.8,122,4.8,123.7 M19.1,123.7c0,1.7-1.1,3-2.4,3c-1.3,0-2.4-1.3-2.4-3c0-1.7,1.1-3,2.4-3
			C18,120.7,19.1,122,19.1,123.7 M32.2,123.7c0,1.7-1.1,3-2.4,3c-1.3,0-2.4-1.3-2.4-3c0-1.7,1.1-3,2.4-3
			C31.2,120.7,32.2,122,32.2,123.7 M46.5,123.7c0,1.7-1.1,3-2.4,3c-1.3,0-2.4-1.3-2.4-3c0-1.7,1.1-3,2.4-3
			C45.5,120.7,46.5,122,46.5,123.7 M59.7,123.7c0,1.7-1.1,3-2.4,3c-1.3,0-2.4-1.3-2.4-3c0-1.7,1.1-3,2.4-3
			C58.6,120.7,59.7,122,59.7,123.7 M4.8,137.4c0,1.3-1.1,2.4-2.4,2.4c-1.3,0-2.4-1.1-2.4-2.4c0-1.3,1.1-2.4,2.4-2.4
			C3.7,135,4.8,136.1,4.8,137.4 M19.1,137.4c0,1.3-1.1,2.4-2.4,2.4c-1.3,0-2.4-1.1-2.4-2.4c0-1.3,1.1-2.4,2.4-2.4
			C18,135,19.1,136.1,19.1,137.4 M32.2,137.4c0,1.3-1.1,2.4-2.4,2.4c-1.3,0-2.4-1.1-2.4-2.4c0-1.3,1.1-2.4,2.4-2.4
			C31.2,135,32.2,136.1,32.2,137.4 M46.5,137.4c0,1.3-1.1,2.4-2.4,2.4c-1.3,0-2.4-1.1-2.4-2.4c0-1.3,1.1-2.4,2.4-2.4
			C45.5,135,46.5,136.1,46.5,137.4 M59.7,137.4c0,1.3-1.1,2.4-2.4,2.4c-1.3,0-2.4-1.1-2.4-2.4c0-1.3,1.1-2.4,2.4-2.4
			C58.6,135,59.7,136.1,59.7,137.4 M4.8,150.6c0,1.3-1.1,2.4-2.4,2.4c-1.3,0-2.4-1.1-2.4-2.4c0-1.3,1.1-2.4,2.4-2.4
			C3.7,148.2,4.8,149.3,4.8,150.6 M19.1,150.6c0,1.3-1.1,2.4-2.4,2.4c-1.3,0-2.4-1.1-2.4-2.4c0-1.3,1.1-2.4,2.4-2.4
			C18,148.2,19.1,149.3,19.1,150.6 M32.2,150.6c0,1.3-1.1,2.4-2.4,2.4c-1.3,0-2.4-1.1-2.4-2.4c0-1.3,1.1-2.4,2.4-2.4
			C31.2,148.2,32.2,149.3,32.2,150.6 M46.5,150.6c0,1.3-1.1,2.4-2.4,2.4c-1.3,0-2.4-1.1-2.4-2.4c0-1.3,1.1-2.4,2.4-2.4
			C45.5,148.2,46.5,149.3,46.5,150.6 M59.7,150.6c0,1.3-1.1,2.4-2.4,2.4c-1.3,0-2.4-1.1-2.4-2.4c0-1.3,1.1-2.4,2.4-2.4
			C58.6,148.2,59.7,149.3,59.7,150.6 M74,82.4c0,1.3-1.1,2.4-2.4,2.4c-1.3,0-2.4-1.1-2.4-2.4s1.1-2.4,2.4-2.4
			C72.9,80,74,81.1,74,82.4 M74,95.6c0,1.3-1.1,2.4-2.4,2.4c-1.3,0-2.4-1.1-2.4-2.4c0-1.3,1.1-2.4,2.4-2.4
			C72.9,93.2,74,94.2,74,95.6 M74,110.5c0,1.7-1.1,3-2.4,3c-1.3,0-2.4-1.3-2.4-3c0-1.7,1.1-3,2.4-3C72.9,107.5,74,108.9,74,110.5
			 M74,123.7c0,1.7-1.1,3-2.4,3c-1.3,0-2.4-1.3-2.4-3c0-1.7,1.1-3,2.4-3C72.9,120.7,74,122,74,123.7 M74,137.4
			c0,1.3-1.1,2.4-2.4,2.4c-1.3,0-2.4-1.1-2.4-2.4c0-1.3,1.1-2.4,2.4-2.4C72.9,135,74,136.1,74,137.4 M74,150.6
			c0,1.3-1.1,2.4-2.4,2.4c-1.3,0-2.4-1.1-2.4-2.4c0-1.3,1.1-2.4,2.4-2.4C72.9,148.2,74,149.3,74,150.6"/>
		<path class="st4" d="M88.8,2.4c0,1.3-1.1,2.4-2.4,2.4c-1.3,0-2.4-1.1-2.4-2.4S85.1,0,86.4,0C87.7,0,88.8,1.1,88.8,2.4 M103.1,2.4
			c0,1.3-1.1,2.4-2.4,2.4c-1.3,0-2.4-1.1-2.4-2.4S99.4,0,100.7,0C102,0,103.1,1.1,103.1,2.4 M116.2,2.4c0,1.3-1.1,2.4-2.4,2.4
			c-1.3,0-2.4-1.1-2.4-2.4s1.1-2.4,2.4-2.4C115.2,0,116.2,1.1,116.2,2.4 M130.5,2.4c0,1.3-1.1,2.4-2.4,2.4c-1.3,0-2.4-1.1-2.4-2.4
			s1.1-2.4,2.4-2.4C129.5,0,130.5,1.1,130.5,2.4 M143.7,2.4c0,1.3-1.1,2.4-2.4,2.4c-1.3,0-2.4-1.1-2.4-2.4S140,0,141.3,0
			C142.6,0,143.7,1.1,143.7,2.4 M88.8,15.6c0,1.3-1.1,2.4-2.4,2.4c-1.3,0-2.4-1.1-2.4-2.4c0-1.3,1.1-2.4,2.4-2.4
			C87.7,13.2,88.8,14.2,88.8,15.6 M103.1,15.6c0,1.3-1.1,2.4-2.4,2.4c-1.3,0-2.4-1.1-2.4-2.4c0-1.3,1.1-2.4,2.4-2.4
			C102,13.2,103.1,14.2,103.1,15.6 M116.2,15.6c0,1.3-1.1,2.4-2.4,2.4c-1.3,0-2.4-1.1-2.4-2.4c0-1.3,1.1-2.4,2.4-2.4
			C115.2,13.2,116.2,14.2,116.2,15.6 M130.5,15.6c0,1.3-1.1,2.4-2.4,2.4c-1.3,0-2.4-1.1-2.4-2.4c0-1.3,1.1-2.4,2.4-2.4
			C129.5,13.2,130.5,14.2,130.5,15.6 M143.7,15.6c0,1.3-1.1,2.4-2.4,2.4c-1.3,0-2.4-1.1-2.4-2.4c0-1.3,1.1-2.4,2.4-2.4
			C142.6,13.2,143.7,14.2,143.7,15.6 M88.8,30.5c0,1.7-1.1,3-2.4,3c-1.3,0-2.4-1.3-2.4-3c0-1.7,1.1-3,2.4-3
			C87.7,27.5,88.8,28.9,88.8,30.5 M103.1,30.5c0,1.7-1.1,3-2.4,3c-1.3,0-2.4-1.3-2.4-3c0-1.7,1.1-3,2.4-3
			C102,27.5,103.1,28.9,103.1,30.5 M116.2,30.5c0,1.7-1.1,3-2.4,3c-1.3,0-2.4-1.3-2.4-3c0-1.7,1.1-3,2.4-3
			C115.2,27.5,116.2,28.9,116.2,30.5 M130.5,30.5c0,1.7-1.1,3-2.4,3c-1.3,0-2.4-1.3-2.4-3c0-1.7,1.1-3,2.4-3
			C129.5,27.5,130.5,28.9,130.5,30.5 M143.7,30.5c0,1.7-1.1,3-2.4,3c-1.3,0-2.4-1.3-2.4-3c0-1.7,1.1-3,2.4-3
			C142.6,27.5,143.7,28.9,143.7,30.5 M88.8,43.7c0,1.7-1.1,3-2.4,3c-1.3,0-2.4-1.3-2.4-3c0-1.7,1.1-3,2.4-3
			C87.7,40.7,88.8,42,88.8,43.7 M103.1,43.7c0,1.7-1.1,3-2.4,3c-1.3,0-2.4-1.3-2.4-3c0-1.7,1.1-3,2.4-3
			C102,40.7,103.1,42,103.1,43.7 M116.2,43.7c0,1.7-1.1,3-2.4,3c-1.3,0-2.4-1.3-2.4-3c0-1.7,1.1-3,2.4-3
			C115.2,40.7,116.2,42,116.2,43.7 M130.5,43.7c0,1.7-1.1,3-2.4,3c-1.3,0-2.4-1.3-2.4-3c0-1.7,1.1-3,2.4-3
			C129.5,40.7,130.5,42,130.5,43.7 M143.7,43.7c0,1.7-1.1,3-2.4,3c-1.3,0-2.4-1.3-2.4-3c0-1.7,1.1-3,2.4-3
			C142.6,40.7,143.7,42,143.7,43.7 M88.8,57.4c0,1.3-1.1,2.4-2.4,2.4c-1.3,0-2.4-1.1-2.4-2.4c0-1.3,1.1-2.4,2.4-2.4
			C87.7,55,88.8,56.1,88.8,57.4 M103.1,57.4c0,1.3-1.1,2.4-2.4,2.4c-1.3,0-2.4-1.1-2.4-2.4c0-1.3,1.1-2.4,2.4-2.4
			C102,55,103.1,56.1,103.1,57.4 M116.2,57.4c0,1.3-1.1,2.4-2.4,2.4c-1.3,0-2.4-1.1-2.4-2.4c0-1.3,1.1-2.4,2.4-2.4
			C115.2,55,116.2,56.1,116.2,57.4 M130.5,57.4c0,1.3-1.1,2.4-2.4,2.4c-1.3,0-2.4-1.1-2.4-2.4c0-1.3,1.1-2.4,2.4-2.4
			C129.5,55,130.5,56.1,130.5,57.4 M143.7,57.4c0,1.3-1.1,2.4-2.4,2.4c-1.3,0-2.4-1.1-2.4-2.4c0-1.3,1.1-2.4,2.4-2.4
			C142.6,55,143.7,56.1,143.7,57.4 M88.8,70.6c0,1.3-1.1,2.4-2.4,2.4c-1.3,0-2.4-1.1-2.4-2.4c0-1.3,1.1-2.4,2.4-2.4
			C87.7,68.2,88.8,69.3,88.8,70.6 M103.1,70.6c0,1.3-1.1,2.4-2.4,2.4c-1.3,0-2.4-1.1-2.4-2.4s1.1-2.4,2.4-2.4
			C102,68.2,103.1,69.3,103.1,70.6 M116.2,70.6c0,1.3-1.1,2.4-2.4,2.4c-1.3,0-2.4-1.1-2.4-2.4s1.1-2.4,2.4-2.4
			C115.2,68.2,116.2,69.3,116.2,70.6 M130.5,70.6c0,1.3-1.1,2.4-2.4,2.4c-1.3,0-2.4-1.1-2.4-2.4s1.1-2.4,2.4-2.4
			C129.5,68.2,130.5,69.3,130.5,70.6 M143.7,70.6c0,1.3-1.1,2.4-2.4,2.4c-1.3,0-2.4-1.1-2.4-2.4s1.1-2.4,2.4-2.4
			C142.6,68.2,143.7,69.3,143.7,70.6 M158,2.4c0,1.3-1.1,2.4-2.4,2.4c-1.3,0-2.4-1.1-2.4-2.4s1.1-2.4,2.4-2.4
			C156.9,0,158,1.1,158,2.4 M158,15.6c0,1.3-1.1,2.4-2.4,2.4c-1.3,0-2.4-1.1-2.4-2.4c0-1.3,1.1-2.4,2.4-2.4
			C156.9,13.2,158,14.2,158,15.6 M158,30.5c0,1.7-1.1,3-2.4,3c-1.3,0-2.4-1.3-2.4-3c0-1.7,1.1-3,2.4-3C156.9,27.5,158,28.9,158,30.5
			 M158,43.7c0,1.7-1.1,3-2.4,3c-1.3,0-2.4-1.3-2.4-3c0-1.7,1.1-3,2.4-3C156.9,40.7,158,42,158,43.7 M158,57.4
			c0,1.3-1.1,2.4-2.4,2.4c-1.3,0-2.4-1.1-2.4-2.4c0-1.3,1.1-2.4,2.4-2.4C156.9,55,158,56.1,158,57.4 M158,70.6
			c0,1.3-1.1,2.4-2.4,2.4c-1.3,0-2.4-1.1-2.4-2.4s1.1-2.4,2.4-2.4C156.9,68.2,158,69.3,158,70.6"/>
		<path class="st4" d="M88.8,82.4c0,1.3-1.1,2.4-2.4,2.4c-1.3,0-2.4-1.1-2.4-2.4s1.1-2.4,2.4-2.4C87.7,80,88.8,81.1,88.8,82.4
			 M103.1,82.4c0,1.3-1.1,2.4-2.4,2.4c-1.3,0-2.4-1.1-2.4-2.4s1.1-2.4,2.4-2.4C102,80,103.1,81.1,103.1,82.4 M116.2,82.4
			c0,1.3-1.1,2.4-2.4,2.4c-1.3,0-2.4-1.1-2.4-2.4s1.1-2.4,2.4-2.4C115.2,80,116.2,81.1,116.2,82.4 M130.5,82.4
			c0,1.3-1.1,2.4-2.4,2.4c-1.3,0-2.4-1.1-2.4-2.4s1.1-2.4,2.4-2.4C129.5,80,130.5,81.1,130.5,82.4 M143.7,82.4
			c0,1.3-1.1,2.4-2.4,2.4c-1.3,0-2.4-1.1-2.4-2.4s1.1-2.4,2.4-2.4C142.6,80,143.7,81.1,143.7,82.4 M88.8,95.6c0,1.3-1.1,2.4-2.4,2.4
			c-1.3,0-2.4-1.1-2.4-2.4c0-1.3,1.1-2.4,2.4-2.4C87.7,93.2,88.8,94.2,88.8,95.6 M103.1,95.6c0,1.3-1.1,2.4-2.4,2.4
			c-1.3,0-2.4-1.1-2.4-2.4c0-1.3,1.1-2.4,2.4-2.4C102,93.2,103.1,94.2,103.1,95.6 M116.2,95.6c0,1.3-1.1,2.4-2.4,2.4
			c-1.3,0-2.4-1.1-2.4-2.4c0-1.3,1.1-2.4,2.4-2.4C115.2,93.2,116.2,94.2,116.2,95.6 M130.5,95.6c0,1.3-1.1,2.4-2.4,2.4
			c-1.3,0-2.4-1.1-2.4-2.4c0-1.3,1.1-2.4,2.4-2.4C129.5,93.2,130.5,94.2,130.5,95.6 M143.7,95.6c0,1.3-1.1,2.4-2.4,2.4
			c-1.3,0-2.4-1.1-2.4-2.4c0-1.3,1.1-2.4,2.4-2.4C142.6,93.2,143.7,94.2,143.7,95.6 M88.8,110.5c0,1.7-1.1,3-2.4,3
			c-1.3,0-2.4-1.3-2.4-3c0-1.7,1.1-3,2.4-3C87.7,107.5,88.8,108.9,88.8,110.5 M103.1,110.5c0,1.7-1.1,3-2.4,3c-1.3,0-2.4-1.3-2.4-3
			c0-1.7,1.1-3,2.4-3C102,107.5,103.1,108.9,103.1,110.5 M116.2,110.5c0,1.7-1.1,3-2.4,3c-1.3,0-2.4-1.3-2.4-3c0-1.7,1.1-3,2.4-3
			C115.2,107.5,116.2,108.9,116.2,110.5 M130.5,110.5c0,1.7-1.1,3-2.4,3c-1.3,0-2.4-1.3-2.4-3c0-1.7,1.1-3,2.4-3
			C129.5,107.5,130.5,108.9,130.5,110.5 M143.7,110.5c0,1.7-1.1,3-2.4,3c-1.3,0-2.4-1.3-2.4-3c0-1.7,1.1-3,2.4-3
			C142.6,107.5,143.7,108.9,143.7,110.5 M88.8,123.7c0,1.7-1.1,3-2.4,3c-1.3,0-2.4-1.3-2.4-3c0-1.7,1.1-3,2.4-3
			C87.7,120.7,88.8,122,88.8,123.7 M103.1,123.7c0,1.7-1.1,3-2.4,3c-1.3,0-2.4-1.3-2.4-3c0-1.7,1.1-3,2.4-3
			C102,120.7,103.1,122,103.1,123.7 M116.2,123.7c0,1.7-1.1,3-2.4,3c-1.3,0-2.4-1.3-2.4-3c0-1.7,1.1-3,2.4-3
			C115.2,120.7,116.2,122,116.2,123.7 M130.5,123.7c0,1.7-1.1,3-2.4,3c-1.3,0-2.4-1.3-2.4-3c0-1.7,1.1-3,2.4-3
			C129.5,120.7,130.5,122,130.5,123.7 M143.7,123.7c0,1.7-1.1,3-2.4,3c-1.3,0-2.4-1.3-2.4-3c0-1.7,1.1-3,2.4-3
			C142.6,120.7,143.7,122,143.7,123.7 M88.8,137.4c0,1.3-1.1,2.4-2.4,2.4c-1.3,0-2.4-1.1-2.4-2.4c0-1.3,1.1-2.4,2.4-2.4
			C87.7,135,88.8,136.1,88.8,137.4 M103.1,137.4c0,1.3-1.1,2.4-2.4,2.4c-1.3,0-2.4-1.1-2.4-2.4c0-1.3,1.1-2.4,2.4-2.4
			C102,135,103.1,136.1,103.1,137.4 M116.2,137.4c0,1.3-1.1,2.4-2.4,2.4c-1.3,0-2.4-1.1-2.4-2.4c0-1.3,1.1-2.4,2.4-2.4
			C115.2,135,116.2,136.1,116.2,137.4 M130.5,137.4c0,1.3-1.1,2.4-2.4,2.4c-1.3,0-2.4-1.1-2.4-2.4c0-1.3,1.1-2.4,2.4-2.4
			C129.5,135,130.5,136.1,130.5,137.4 M143.7,137.4c0,1.3-1.1,2.4-2.4,2.4c-1.3,0-2.4-1.1-2.4-2.4c0-1.3,1.1-2.4,2.4-2.4
			C142.6,135,143.7,136.1,143.7,137.4 M88.8,150.6c0,1.3-1.1,2.4-2.4,2.4c-1.3,0-2.4-1.1-2.4-2.4c0-1.3,1.1-2.4,2.4-2.4
			C87.7,148.2,88.8,149.3,88.8,150.6 M103.1,150.6c0,1.3-1.1,2.4-2.4,2.4c-1.3,0-2.4-1.1-2.4-2.4c0-1.3,1.1-2.4,2.4-2.4
			C102,148.2,103.1,149.3,103.1,150.6 M116.2,150.6c0,1.3-1.1,2.4-2.4,2.4c-1.3,0-2.4-1.1-2.4-2.4c0-1.3,1.1-2.4,2.4-2.4
			C115.2,148.2,116.2,149.3,116.2,150.6 M130.5,150.6c0,1.3-1.1,2.4-2.4,2.4c-1.3,0-2.4-1.1-2.4-2.4c0-1.3,1.1-2.4,2.4-2.4
			C129.5,148.2,130.5,149.3,130.5,150.6 M143.7,150.6c0,1.3-1.1,2.4-2.4,2.4c-1.3,0-2.4-1.1-2.4-2.4c0-1.3,1.1-2.4,2.4-2.4
			C142.6,148.2,143.7,149.3,143.7,150.6 M158,82.4c0,1.3-1.1,2.4-2.4,2.4c-1.3,0-2.4-1.1-2.4-2.4s1.1-2.4,2.4-2.4
			C156.9,80,158,81.1,158,82.4 M158,95.6c0,1.3-1.1,2.4-2.4,2.4c-1.3,0-2.4-1.1-2.4-2.4c0-1.3,1.1-2.4,2.4-2.4
			C156.9,93.2,158,94.2,158,95.6 M158,110.5c0,1.7-1.1,3-2.4,3c-1.3,0-2.4-1.3-2.4-3c0-1.7,1.1-3,2.4-3
			C156.9,107.5,158,108.9,158,110.5 M158,123.7c0,1.7-1.1,3-2.4,3c-1.3,0-2.4-1.3-2.4-3c0-1.7,1.1-3,2.4-3
			C156.9,120.7,158,122,158,123.7 M158,137.4c0,1.3-1.1,2.4-2.4,2.4c-1.3,0-2.4-1.1-2.4-2.4c0-1.3,1.1-2.4,2.4-2.4
			C156.9,135,158,136.1,158,137.4 M158,150.6c0,1.3-1.1,2.4-2.4,2.4c-1.3,0-2.4-1.1-2.4-2.4c0-1.3,1.1-2.4,2.4-2.4
			C156.9,148.2,158,149.3,158,150.6"/>
	</g>
</g>
</svg>
