<?xml version="1.0" encoding="utf-8"?>
<!-- Generator: Adobe Illustrator 22.1.0, SVG Export Plug-In . SVG Version: 6.00 Build 0)  -->
<svg version="1.1" id="Layer_1" xmlns="http://www.w3.org/2000/svg" xmlns:xlink="http://www.w3.org/1999/xlink" x="0px" y="0px"
	 viewBox="0 0 1920 635" style="enable-background:new 0 0 1920 635;" xml:space="preserve">
<style type="text/css">
	.st0{filter:url(#Adobe_OpacityMaskFilter);}
	.st1{fill:#FFFFFF;}
	.st2{mask:url(#testimonial-bg-b_1_);fill:#FC5C42;}
	.st3{fill:#22D7DA;}
</style>
<g>
	<g transform="translate(1485 362)">
		<defs>
			<filter id="Adobe_OpacityMaskFilter" filterUnits="userSpaceOnUse" x="13" y="0" width="69" height="56">
				<feColorMatrix  type="matrix" values="1 0 0 0 0  0 1 0 0 0  0 0 1 0 0  0 0 0 1 0"/>
			</filter>
		</defs>
		<mask maskUnits="userSpaceOnUse" x="13" y="0" width="69" height="56" id="testimonial-bg-b_1_">
			<g class="st0">
				<polygon id="testimonial-bg-a_1_" class="st1" points="0,0 69,0 69,56 0,56 				"/>
			</g>
		</mask>
		<path class="st2" d="M81.3,4c-3.6,3.6-7.6,3.4-10.8,3.2C67.6,7,65.4,6.8,63.2,9c-2.2,2.2-2,4.4-1.8,7.3c0.2,3.2,0.4,7.2-3.2,10.9
			s-7.6,3.4-10.8,3.2c-2.9-0.2-5.1-0.3-7.3,1.8c-2.2,2.2-2,4.4-1.8,7.3c0.2,3.2,0.4,7.2-3.2,10.9c-3.6,3.6-7.6,3.4-10.8,3.2
			c-2.9-0.2-5.1-0.3-7.3,1.8c-0.9,0.9-2.4,0.9-3.3,0c-0.9-0.9-0.9-2.4,0-3.3c3.6-3.6,7.6-3.4,10.8-3.2c2.9,0.2,5.1,0.3,7.3-1.8
			c2.2-2.2,2-4.4,1.8-7.3c-0.2-3.2-0.4-7.2,3.2-10.9c3.6-3.6,7.6-3.4,10.8-3.2c2.9,0.2,5.1,0.3,7.3-1.8c2.2-2.2,2-4.4,1.8-7.3
			c-0.2-3.2-0.4-7.2,3.2-10.9c3.6-3.6,7.6-3.4,10.8-3.2c2.9,0.2,5.1,0.3,7.3-1.8c0.9-0.9,2.4-0.9,3.3,0C82.2,1.6,82.2,3.1,81.3,4"/>
	</g>
	<path class="st3" d="M322.8,160.4c0,1.3-1.1,2.4-2.4,2.4c-1.3,0-2.4-1.1-2.4-2.4c0-1.3,1.1-2.4,2.4-2.4
		C321.7,158,322.8,159.1,322.8,160.4 M337.1,160.4c0,1.3-1.1,2.4-2.4,2.4c-1.3,0-2.4-1.1-2.4-2.4c0-1.3,1.1-2.4,2.4-2.4
		C336,158,337.1,159.1,337.1,160.4 M350.2,160.4c0,1.3-1.1,2.4-2.4,2.4c-1.3,0-2.4-1.1-2.4-2.4c0-1.3,1.1-2.4,2.4-2.4
		C349.2,158,350.2,159.1,350.2,160.4 M364.5,160.4c0,1.3-1.1,2.4-2.4,2.4c-1.3,0-2.4-1.1-2.4-2.4c0-1.3,1.1-2.4,2.4-2.4
		C363.5,158,364.5,159.1,364.5,160.4 M377.7,160.4c0,1.3-1.1,2.4-2.4,2.4c-1.3,0-2.4-1.1-2.4-2.4c0-1.3,1.1-2.4,2.4-2.4
		C376.6,158,377.7,159.1,377.7,160.4 M322.8,173.6c0,1.3-1.1,2.4-2.4,2.4c-1.3,0-2.4-1.1-2.4-2.4c0-1.3,1.1-2.4,2.4-2.4
		C321.7,171.2,322.8,172.2,322.8,173.6 M337.1,173.6c0,1.3-1.1,2.4-2.4,2.4c-1.3,0-2.4-1.1-2.4-2.4c0-1.3,1.1-2.4,2.4-2.4
		C336,171.2,337.1,172.2,337.1,173.6 M350.2,173.6c0,1.3-1.1,2.4-2.4,2.4c-1.3,0-2.4-1.1-2.4-2.4c0-1.3,1.1-2.4,2.4-2.4
		C349.2,171.2,350.2,172.2,350.2,173.6 M364.5,173.6c0,1.3-1.1,2.4-2.4,2.4c-1.3,0-2.4-1.1-2.4-2.4c0-1.3,1.1-2.4,2.4-2.4
		C363.5,171.2,364.5,172.2,364.5,173.6 M377.7,173.6c0,1.3-1.1,2.4-2.4,2.4c-1.3,0-2.4-1.1-2.4-2.4c0-1.3,1.1-2.4,2.4-2.4
		C376.6,171.2,377.7,172.2,377.7,173.6 M322.8,188.5c0,1.7-1.1,3-2.4,3c-1.3,0-2.4-1.3-2.4-3c0-1.7,1.1-3,2.4-3
		C321.7,185.5,322.8,186.9,322.8,188.5 M337.1,188.5c0,1.7-1.1,3-2.4,3c-1.3,0-2.4-1.3-2.4-3c0-1.7,1.1-3,2.4-3
		C336,185.5,337.1,186.9,337.1,188.5 M350.2,188.5c0,1.7-1.1,3-2.4,3c-1.3,0-2.4-1.3-2.4-3c0-1.7,1.1-3,2.4-3
		C349.2,185.5,350.2,186.9,350.2,188.5 M364.5,188.5c0,1.7-1.1,3-2.4,3c-1.3,0-2.4-1.3-2.4-3c0-1.7,1.1-3,2.4-3
		C363.5,185.5,364.5,186.9,364.5,188.5 M377.7,188.5c0,1.7-1.1,3-2.4,3c-1.3,0-2.4-1.3-2.4-3c0-1.7,1.1-3,2.4-3
		C376.6,185.5,377.7,186.9,377.7,188.5 M322.8,201.7c0,1.7-1.1,3-2.4,3c-1.3,0-2.4-1.3-2.4-3c0-1.7,1.1-3,2.4-3
		C321.7,198.7,322.8,200,322.8,201.7 M337.1,201.7c0,1.7-1.1,3-2.4,3c-1.3,0-2.4-1.3-2.4-3c0-1.7,1.1-3,2.4-3
		C336,198.7,337.1,200,337.1,201.7 M350.2,201.7c0,1.7-1.1,3-2.4,3c-1.3,0-2.4-1.3-2.4-3c0-1.7,1.1-3,2.4-3
		C349.2,198.7,350.2,200,350.2,201.7 M364.5,201.7c0,1.7-1.1,3-2.4,3c-1.3,0-2.4-1.3-2.4-3c0-1.7,1.1-3,2.4-3
		C363.5,198.7,364.5,200,364.5,201.7 M377.7,201.7c0,1.7-1.1,3-2.4,3c-1.3,0-2.4-1.3-2.4-3c0-1.7,1.1-3,2.4-3
		C376.6,198.7,377.7,200,377.7,201.7 M322.8,215.4c0,1.3-1.1,2.4-2.4,2.4c-1.3,0-2.4-1.1-2.4-2.4c0-1.3,1.1-2.4,2.4-2.4
		C321.7,213,322.8,214.1,322.8,215.4 M337.1,215.4c0,1.3-1.1,2.4-2.4,2.4c-1.3,0-2.4-1.1-2.4-2.4c0-1.3,1.1-2.4,2.4-2.4
		C336,213,337.1,214.1,337.1,215.4 M350.2,215.4c0,1.3-1.1,2.4-2.4,2.4c-1.3,0-2.4-1.1-2.4-2.4c0-1.3,1.1-2.4,2.4-2.4
		C349.2,213,350.2,214.1,350.2,215.4 M364.5,215.4c0,1.3-1.1,2.4-2.4,2.4c-1.3,0-2.4-1.1-2.4-2.4c0-1.3,1.1-2.4,2.4-2.4
		C363.5,213,364.5,214.1,364.5,215.4 M377.7,215.4c0,1.3-1.1,2.4-2.4,2.4c-1.3,0-2.4-1.1-2.4-2.4c0-1.3,1.1-2.4,2.4-2.4
		C376.6,213,377.7,214.1,377.7,215.4 M322.8,228.6c0,1.3-1.1,2.4-2.4,2.4c-1.3,0-2.4-1.1-2.4-2.4c0-1.3,1.1-2.4,2.4-2.4
		C321.7,226.2,322.8,227.3,322.8,228.6 M337.1,228.6c0,1.3-1.1,2.4-2.4,2.4c-1.3,0-2.4-1.1-2.4-2.4c0-1.3,1.1-2.4,2.4-2.4
		C336,226.2,337.1,227.3,337.1,228.6 M350.2,228.6c0,1.3-1.1,2.4-2.4,2.4c-1.3,0-2.4-1.1-2.4-2.4c0-1.3,1.1-2.4,2.4-2.4
		C349.2,226.2,350.2,227.3,350.2,228.6 M364.5,228.6c0,1.3-1.1,2.4-2.4,2.4c-1.3,0-2.4-1.1-2.4-2.4c0-1.3,1.1-2.4,2.4-2.4
		C363.5,226.2,364.5,227.3,364.5,228.6 M377.7,228.6c0,1.3-1.1,2.4-2.4,2.4c-1.3,0-2.4-1.1-2.4-2.4c0-1.3,1.1-2.4,2.4-2.4
		C376.6,226.2,377.7,227.3,377.7,228.6 M392,160.4c0,1.3-1.1,2.4-2.4,2.4c-1.3,0-2.4-1.1-2.4-2.4c0-1.3,1.1-2.4,2.4-2.4
		C390.9,158,392,159.1,392,160.4 M392,173.6c0,1.3-1.1,2.4-2.4,2.4c-1.3,0-2.4-1.1-2.4-2.4c0-1.3,1.1-2.4,2.4-2.4
		C390.9,171.2,392,172.2,392,173.6 M392,188.5c0,1.7-1.1,3-2.4,3c-1.3,0-2.4-1.3-2.4-3c0-1.7,1.1-3,2.4-3
		C390.9,185.5,392,186.9,392,188.5 M392,201.7c0,1.7-1.1,3-2.4,3c-1.3,0-2.4-1.3-2.4-3c0-1.7,1.1-3,2.4-3
		C390.9,198.7,392,200,392,201.7 M392,215.4c0,1.3-1.1,2.4-2.4,2.4c-1.3,0-2.4-1.1-2.4-2.4c0-1.3,1.1-2.4,2.4-2.4
		C390.9,213,392,214.1,392,215.4 M392,228.6c0,1.3-1.1,2.4-2.4,2.4c-1.3,0-2.4-1.1-2.4-2.4c0-1.3,1.1-2.4,2.4-2.4
		C390.9,226.2,392,227.3,392,228.6"/>
	<path class="st3" d="M406.8,160.4c0,1.3-1.1,2.4-2.4,2.4c-1.3,0-2.4-1.1-2.4-2.4c0-1.3,1.1-2.4,2.4-2.4
		C405.7,158,406.8,159.1,406.8,160.4 M421.1,160.4c0,1.3-1.1,2.4-2.4,2.4c-1.3,0-2.4-1.1-2.4-2.4c0-1.3,1.1-2.4,2.4-2.4
		C420,158,421.1,159.1,421.1,160.4 M434.2,160.4c0,1.3-1.1,2.4-2.4,2.4c-1.3,0-2.4-1.1-2.4-2.4c0-1.3,1.1-2.4,2.4-2.4
		C433.2,158,434.2,159.1,434.2,160.4 M448.5,160.4c0,1.3-1.1,2.4-2.4,2.4c-1.3,0-2.4-1.1-2.4-2.4c0-1.3,1.1-2.4,2.4-2.4
		C447.5,158,448.5,159.1,448.5,160.4 M461.7,160.4c0,1.3-1.1,2.4-2.4,2.4c-1.3,0-2.4-1.1-2.4-2.4c0-1.3,1.1-2.4,2.4-2.4
		C460.6,158,461.7,159.1,461.7,160.4 M406.8,173.6c0,1.3-1.1,2.4-2.4,2.4c-1.3,0-2.4-1.1-2.4-2.4c0-1.3,1.1-2.4,2.4-2.4
		C405.7,171.2,406.8,172.2,406.8,173.6 M421.1,173.6c0,1.3-1.1,2.4-2.4,2.4c-1.3,0-2.4-1.1-2.4-2.4c0-1.3,1.1-2.4,2.4-2.4
		C420,171.2,421.1,172.2,421.1,173.6 M434.2,173.6c0,1.3-1.1,2.4-2.4,2.4c-1.3,0-2.4-1.1-2.4-2.4c0-1.3,1.1-2.4,2.4-2.4
		C433.2,171.2,434.2,172.2,434.2,173.6 M448.5,173.6c0,1.3-1.1,2.4-2.4,2.4c-1.3,0-2.4-1.1-2.4-2.4c0-1.3,1.1-2.4,2.4-2.4
		C447.5,171.2,448.5,172.2,448.5,173.6 M461.7,173.6c0,1.3-1.1,2.4-2.4,2.4c-1.3,0-2.4-1.1-2.4-2.4c0-1.3,1.1-2.4,2.4-2.4
		C460.6,171.2,461.7,172.2,461.7,173.6 M406.8,188.5c0,1.7-1.1,3-2.4,3c-1.3,0-2.4-1.3-2.4-3c0-1.7,1.1-3,2.4-3
		C405.7,185.5,406.8,186.9,406.8,188.5 M421.1,188.5c0,1.7-1.1,3-2.4,3c-1.3,0-2.4-1.3-2.4-3c0-1.7,1.1-3,2.4-3
		C420,185.5,421.1,186.9,421.1,188.5 M434.2,188.5c0,1.7-1.1,3-2.4,3c-1.3,0-2.4-1.3-2.4-3c0-1.7,1.1-3,2.4-3
		C433.2,185.5,434.2,186.9,434.2,188.5 M448.5,188.5c0,1.7-1.1,3-2.4,3c-1.3,0-2.4-1.3-2.4-3c0-1.7,1.1-3,2.4-3
		C447.5,185.5,448.5,186.9,448.5,188.5 M461.7,188.5c0,1.7-1.1,3-2.4,3c-1.3,0-2.4-1.3-2.4-3c0-1.7,1.1-3,2.4-3
		C460.6,185.5,461.7,186.9,461.7,188.5 M406.8,201.7c0,1.7-1.1,3-2.4,3c-1.3,0-2.4-1.3-2.4-3c0-1.7,1.1-3,2.4-3
		C405.7,198.7,406.8,200,406.8,201.7 M421.1,201.7c0,1.7-1.1,3-2.4,3c-1.3,0-2.4-1.3-2.4-3c0-1.7,1.1-3,2.4-3
		C420,198.7,421.1,200,421.1,201.7 M434.2,201.7c0,1.7-1.1,3-2.4,3c-1.3,0-2.4-1.3-2.4-3c0-1.7,1.1-3,2.4-3
		C433.2,198.7,434.2,200,434.2,201.7 M448.5,201.7c0,1.7-1.1,3-2.4,3c-1.3,0-2.4-1.3-2.4-3c0-1.7,1.1-3,2.4-3
		C447.5,198.7,448.5,200,448.5,201.7 M461.7,201.7c0,1.7-1.1,3-2.4,3c-1.3,0-2.4-1.3-2.4-3c0-1.7,1.1-3,2.4-3
		C460.6,198.7,461.7,200,461.7,201.7 M406.8,215.4c0,1.3-1.1,2.4-2.4,2.4c-1.3,0-2.4-1.1-2.4-2.4c0-1.3,1.1-2.4,2.4-2.4
		C405.7,213,406.8,214.1,406.8,215.4 M421.1,215.4c0,1.3-1.1,2.4-2.4,2.4c-1.3,0-2.4-1.1-2.4-2.4c0-1.3,1.1-2.4,2.4-2.4
		C420,213,421.1,214.1,421.1,215.4 M434.2,215.4c0,1.3-1.1,2.4-2.4,2.4c-1.3,0-2.4-1.1-2.4-2.4c0-1.3,1.1-2.4,2.4-2.4
		C433.2,213,434.2,214.1,434.2,215.4 M448.5,215.4c0,1.3-1.1,2.4-2.4,2.4c-1.3,0-2.4-1.1-2.4-2.4c0-1.3,1.1-2.4,2.4-2.4
		C447.5,213,448.5,214.1,448.5,215.4 M461.7,215.4c0,1.3-1.1,2.4-2.4,2.4c-1.3,0-2.4-1.1-2.4-2.4c0-1.3,1.1-2.4,2.4-2.4
		C460.6,213,461.7,214.1,461.7,215.4 M406.8,228.6c0,1.3-1.1,2.4-2.4,2.4c-1.3,0-2.4-1.1-2.4-2.4c0-1.3,1.1-2.4,2.4-2.4
		C405.7,226.2,406.8,227.3,406.8,228.6 M421.1,228.6c0,1.3-1.1,2.4-2.4,2.4c-1.3,0-2.4-1.1-2.4-2.4c0-1.3,1.1-2.4,2.4-2.4
		C420,226.2,421.1,227.3,421.1,228.6 M434.2,228.6c0,1.3-1.1,2.4-2.4,2.4c-1.3,0-2.4-1.1-2.4-2.4c0-1.3,1.1-2.4,2.4-2.4
		C433.2,226.2,434.2,227.3,434.2,228.6 M448.5,228.6c0,1.3-1.1,2.4-2.4,2.4c-1.3,0-2.4-1.1-2.4-2.4c0-1.3,1.1-2.4,2.4-2.4
		C447.5,226.2,448.5,227.3,448.5,228.6 M461.7,228.6c0,1.3-1.1,2.4-2.4,2.4c-1.3,0-2.4-1.1-2.4-2.4c0-1.3,1.1-2.4,2.4-2.4
		C460.6,226.2,461.7,227.3,461.7,228.6 M476,160.4c0,1.3-1.1,2.4-2.4,2.4c-1.3,0-2.4-1.1-2.4-2.4c0-1.3,1.1-2.4,2.4-2.4
		C474.9,158,476,159.1,476,160.4 M476,173.6c0,1.3-1.1,2.4-2.4,2.4c-1.3,0-2.4-1.1-2.4-2.4c0-1.3,1.1-2.4,2.4-2.4
		C474.9,171.2,476,172.2,476,173.6 M476,188.5c0,1.7-1.1,3-2.4,3c-1.3,0-2.4-1.3-2.4-3c0-1.7,1.1-3,2.4-3
		C474.9,185.5,476,186.9,476,188.5 M476,201.7c0,1.7-1.1,3-2.4,3c-1.3,0-2.4-1.3-2.4-3c0-1.7,1.1-3,2.4-3
		C474.9,198.7,476,200,476,201.7 M476,215.4c0,1.3-1.1,2.4-2.4,2.4c-1.3,0-2.4-1.1-2.4-2.4c0-1.3,1.1-2.4,2.4-2.4
		C474.9,213,476,214.1,476,215.4 M476,228.6c0,1.3-1.1,2.4-2.4,2.4c-1.3,0-2.4-1.1-2.4-2.4c0-1.3,1.1-2.4,2.4-2.4
		C474.9,226.2,476,227.3,476,228.6"/>
</g>
</svg>
