<?xml version="1.0" standalone="no"?>
<!DOCTYPE svg PUBLIC "-//W3C//DTD SVG 1.1//EN" "http://www.w3.org/Graphics/SVG/1.1/DTD/svg11.dtd" >
<svg xmlns="http://www.w3.org/2000/svg">
<defs>
  <font id="xPider" horiz-adv-x="256">
    <font-face font-family="xPider"
      units-per-em="256" ascent="256"
      descent="0" />
    <missing-glyph horiz-adv-x="0" />
    <glyph glyph-name="archery-target"
      unicode="&#xEA01;"
      horiz-adv-x="256" d="M173.84 233.208L151.28 210.504L155.296 190.664L159.312 170.824L151.344 162.864L143.376 154.896L136.816 158.88C126.208 165.328 117.68 167.52 103.496 167.424C93.456 167.36 90.248 166.944 83.832 164.808C58.288 156.328 40.032 131 40.032 104C40.032 74.368 61.712 47.52 90.504 41.496C135.896 32 176.088 72.152 166.504 117.416C164.984 124.6 160.616 134.928 156.88 140.168L154.72 143.208L162.8000000000001 151.288L170.8960000000001 159.376L190.6960000000001 155.256L210.5040000000001 151.136L233.2080000000001 173.776C245.7040000000001 186.224 255.7920000000001 196.544 255.6240000000001 196.712C255.4640000000001 196.872 247.2640000000001 198.608 237.4160000000001 200.552C227.5600000000001 202.512 218.8560000000001 204.328 218.0560000000001 204.592C217.0880000000001 204.928 219.9920000000001 208.464 226.9840000000001 215.48L237.3440000000001 225.88L232.5920000000001 231.44C229.9840000000001 234.496 227.3280000000001 237 226.6880000000001 237C226.0480000000001 237 220.9280000000001 232.416 215.3120000000001 226.808C208.4080000000001 219.928 204.9280000000001 217.088 204.5920000000001 218.056C204.328 218.856 202.512 227.56 200.56 237.416C198.608 247.264 196.88 255.464 196.712 255.624C196.544 255.784 186.256 245.704 173.848 233.208M189.512 212.168L191.28 202.824L182.424 193.928C177.56 189.032 173.28 185.36 172.912 185.768C172.56 186.168 171.464 190.704 170.488 195.84L168.72 205.176L177.576 214.072C182.44 218.968 186.72 222.64 187.088 222.232C187.44 221.832 188.536 217.296 189.512 212.16M89 206.888C78.064 205.144 70.296 202.672 59.496 197.48C32.472 184.48 13.04 161.976 4.664 133.968C-1.52 113.264 -1.52 94.736 4.664 74.048C11.064 52.616 24.344 33.872 43 19.944C51.128 13.872 67.192 6.36 78.52 3.328C87.304 0.984 90.36 0.664 104 0.664C117.536 0.664 120.728 0.984 129.2 3.264C147.648 8.2 162.096 16.3200000000001 175.784 29.4160000000001C193.64 46.5040000000001 204.072 67.3600000000001 207.168 92.1840000000001C208.528 103.0320000000001 207.448 118.5680000000001 204.464 131.1200000000001L202.896 137.7440000000001L195.056 135.7760000000001L187.232 133.8080000000001L188.528 128.888C201.584 79.4160000000001 174.536 32.3120000000001 125.328 18.8080000000001C119.112 17.104 114.712 16.664 104 16.664C89.288 16.664 80.8 18.3440000000001 68.672 23.664C35.304 38.304 14.272 72.3920000000001 16.336 108.5040000000001A88.03200000000001 88.03200000000001 0 0 0 97.152 191.6240000000001C105.152 192.3040000000001 120.048 190.864 128.776 188.5600000000001L133.816 187.2320000000001L135.776 195.0640000000001L137.744 202.9040000000001L130.9679999999999 204.4400000000001C115.5039999999999 207.9600000000001 101.0079999999999 208.8000000000001 88.9999999999999 206.8880000000001M213 189.3680000000001C217.672 188.4560000000001 221.8319999999999 187.4320000000001 222.232 187.0720000000001C222.6399999999999 186.72 218.9679999999999 182.4400000000001 214.072 177.5760000000001L205.1759999999999 168.7200000000001L195.8399999999999 170.4960000000001C190.7039999999999 171.4800000000001 186.1119999999999 172.4960000000001 185.6479999999999 172.7680000000001C184.6559999999999 173.3280000000001 201.9439999999999 191.0000000000001 203.4799999999999 191.0080000000001C204.0399999999999 191.0080000000001 208.3279999999999 190.2640000000001 212.9999999999999 189.3600000000001M113.4479999999999 150.9280000000001C119.3039999999999 149.8400000000001 129.5199999999999 145.5920000000001 130.6479999999999 143.7600000000001C130.9839999999999 143.2240000000001 123.9119999999999 135.424 114.9359999999999 126.4320000000001L98.6159999999999 110.0880000000001L100.5199999999999 107.7920000000001C101.5759999999999 106.5280000000001 104.0079999999999 103.8000000000001 105.9359999999999 101.7280000000001L109.4399999999999 97.9680000000001L126.1119999999999 114.6080000000001C135.2799999999999 123.7680000000001 143.2239999999999 130.9840000000001 143.7599999999999 130.6480000000001C145.4239999999999 129.6160000000001 149.6719999999999 119.8000000000001 150.8639999999999 114.2000000000001C154.3999999999999 97.68 149.8719999999999 82.792 137.5519999999999 70.4160000000001C127.728 60.56 117.128 56 104 56C90.88 56 80.272 60.56 70.448 70.416C58.136 82.784 53.624 97.6 57.112 114.2C59.032 123.304 62.84 130 70.416 137.568C82.64 149.768 96.472 154.064 113.448 150.928" />
    <glyph glyph-name="bill"
      unicode="&#xEA02;"
      horiz-adv-x="256" d="M24 130.096V4.184L47.52 13.6L71.04 23.016L83.2 14.864L95.368 6.712L111.688 14.856L128 22.992L144.32 14.856L160.632 6.712L172.792 14.872L184.968 23.016L208.488 13.6L232 4.184V256H24V130.096M216 133.896C216 49.416 215.744 27.888 214.752 28.28L198.224 34.896L182.952 41.008L171.2 33.136L159.448 25.264L143.728 33.136L128 41.016L112.272 33.136L96.552 25.264L84.792 33.136L73.048 41.008L57.768 34.896L41.248 28.28C40.256 27.88 40 49.408 40 133.896V240H216V133.896M119.936 223.04C109.36 221.136 97.136 211.712 92.152 201.632C86.936 191.088 86.936 176.944 92.152 166.336C95.168 160.208 104.208 151.168 110.336 148.152C120.944 142.936 135.056 142.936 145.664 148.152C151.792 151.168 160.832 160.208 163.848 166.336C169.064 176.944 169.064 191.088 163.848 201.632C160.36 208.688 152.192 216.552 144.808 219.968C137.808 223.208 127.736 224.448 119.928 223.04M138.624 205.176C146.992 200.872 151.432 193.528 151.424 184C151.424 162.944 126.704 152.144 111.808 166.688C98.256 179.92 103.6 201.096 122 207.12C125.856 208.384 134.32 207.392 138.632 205.176M64 112V104H136V120H64V112M160 112V104H192V120H160V112M64 72V64H136V80H64V72M160 72V64H192V80H160V72" />
    <glyph glyph-name="book-open-2"
      unicode="&#xEA03;"
      horiz-adv-x="256" d="M5 145.16V49.32L66.504 32.544L128 15.776L189.504 32.544L251 49.32V145.16C251 230.752 250.84 241.0000000000001 249.464 241.0000000000001C248.616 241.0000000000001 220.936 233.6 187.96 224.56L127.992 208.1280000000001L67.8 224.56C34.688 233.6 7.016 241 6.304 241C5.24 241 5 223.16 5 145.16M73.248 212.12L128 197.24L182.752 212.12C212.864 220.296 238.064 227 238.752 227C239.736 227 240 209.376 240 142.2V57.384L184 42.136L128 26.88L72 42.136L16 57.384V142.192C16 209.376 16.264 226.992 17.248 226.992C17.936 226.992 43.136 220.296 73.248 212.112M48.176 180.376C47.496 177.824 47.16 175.512 47.44 175.232C48.168 174.504 96.16 161.088 98.2 161.048C99.336 161.024 100.256 162.272 100.944 164.76C102.368 169.88 102.272 170.792 100.248 171.408C96.328 172.608 50.472 185.008 49.96 185.008C49.664 185.008 48.856 182.928 48.176 180.368M179.52 177.888C165.776 174.032 154.384 170.728 154.2 170.544C153.688 170.032 155.056 163.544 156 162.008C156.688 160.896 161.5680000000001 161.928 181.896 167.496C195.672 171.272 207.432 174.656 208.016 175.016C209.36 175.848 207.08 185.04 205.536 184.944C204.976 184.912 193.256 181.728 179.5200000000001 177.88M48.08 135.376C47.44 132.84 47.056 130.608 47.24 130.424C47.424 130.24 59.184 126.856 73.384 122.904C93.96 117.16 99.36 115.968 100.024 117.032C101.056 118.712 102.28 125.048 101.688 125.648C101.112 126.216 51.864 139.992 50.368 139.992C49.744 139.992 48.712 137.92 48.072 135.376M179.16 133C165.776 129.24 154.608 125.944 154.344 125.68C153.72 125.056 154.92 118.752 155.984 117.024C156.648 115.952 161.944 117.104 182.552 122.824C196.712 126.744 208.472 130.136 208.688 130.36C208.912 130.576 208.568 132.84 207.928 135.376C207.128 138.576 206.256 139.976 205.128 139.928C204.232 139.888 192.544 136.768 179.16 133M48.08 87.376C47.44 84.832 47.096 82.576 47.32 82.36C47.536 82.136 59.296 78.744 73.456 74.824C94.064 69.104 99.36 67.944 100.024 69.024C101.064 70.704 102.288 77.048 101.696 77.648C101.136 78.208 51.904 91.968 50.376 91.984C49.752 91.992 48.72 89.92 48.08 87.376M179.168 85C165.784 81.24 154.616 77.944 154.352 77.68C153.728 77.056 154.928 70.752 155.992 69.024C156.656 67.944 161.92 69.088 182.512 74.768C196.64 78.664 208.4 82.056 208.648 82.304C208.896 82.552 208.568 84.832 207.928 87.376C207.128 90.576 206.264 91.976 205.136 91.928C204.24 91.888 192.552 88.768 179.168 85" />
    <glyph glyph-name="building"
      unicode="&#xEA04;"
      horiz-adv-x="256" d="M184 232H136V256H120V232H72A8 8 0 0 1 64 224V128H80V216H176V160H192V224A8 8 0 0 1 184 232zM248 144H144A8 8 0 0 1 136 136V16H120V104A8 8 0 0 1 112 112H8A8 8 0 0 1 0 104V8A8 8 0 0 1 8 0H248A8 8 0 0 1 256 8V136A8 8 0 0 1 248 144zM80 32H40V48H80V32zM80 64H40V80H80V64zM216 32H176V48H216V32zM216 64H176V80H216V64zM216 96H176V112H216V96z" />
    <glyph glyph-name="button-circle-play"
      unicode="&#xEA05;"
      horiz-adv-x="256" d="M108.504 254.448C52.32 244.952 9.96 202.048 1.448 146C-4.6 106.208 9.664 64.92 39.344 36.264C89.296 -11.96 166.688 -11.96 216.64 36.264C269.016 86.824 268.88 168.912 216.344 220.16C188.512 247.304 146.08 260.8 108.496 254.448M142.568 238.928C180.024 233.72 211.616 211.024 228.072 177.504C238.2 156.864 241.912 134.928 238.928 113.432C233.76 76.256 210.944 44.504 177.28 27.624C146.96 12.424 109.448 12.264 79.496 27.224C45.68 44.12 24.016 73.28 17.496 110.712C12.856 137.28 19.6 167.04 35.744 191.328C42.216 201.048 55.72 214.368 66 221.16C88.456 235.992 116.64 242.5360000000001 142.56 238.9280000000001M88 128C88 89.496 88.168 58 88.376 58C89.544 58 197.496 127.24 197.496 127.992C197.496 128.736 89.544 198 88.376 198C88.168 198 88 166.504 88 128M137.248 148.2C154.16 137.48 168 128.384 168 128C168 127.472 112.216 91.552 105.248 87.592C104.256 87.032 104 95.392 104 128C104 160.608 104.256 168.968 105.248 168.408C105.936 168.016 120.336 158.92 137.248 148.2" />
    <glyph glyph-name="cursor-pointer"
      unicode="&#xEA06;"
      horiz-adv-x="256" d="M76.136 254.912C71.176 253.392 65.672 249.632 62.104 245.32C56.28 238.28 56 235.808 56 191.816V152H46.368C41.064 152 34.88 151.44 32.616 150.768C27 149.088 18.536 140.768 17.096 135.496C15.472 129.528 15.704 76.016 17.392 69C20.456 56.256 26.736 46.352 43.376 28C53.24 17.12 57 10.576 57 4.296V0L135.192 0.248L213.392 0.504L222.696 60.504C232.536 123.848 232.824 127.288 229.256 136.4C225.992 144.76 217.656 154.592 210.872 158.064C204.904 161.128 196.336 162.768 156.496 168.504A5234.536 5234.536 0 0 0 115.248 174.536L112 175.096V203.368C112 235.608 111.472 238.912 105.128 246.112C103 248.536 99.128 251.584 96.52 252.88C91.152 255.56 81.44 256.528 76.136 254.912M92.408 236.056L95.496 232.96L95.784 197.024L96.072 161.08L99.288 160.52C101.048 160.216 124.072 156.824 150.44 152.984C186.328 147.752 199.464 145.464 202.696 143.904C208.192 141.248 212.64 135.856 214.592 129.504C216.096 124.6 215.96 123.432 207.848 70.248L199.568 16H71.496L68.68 21.408C67.12 24.376 61.32 31.912 55.768 38.152C42.808 52.752 38.728 58.192 35.288 65.528L32.504 71.496L32.184 101.232L31.864 130.96L34.384 133.48C36.728 135.824 37.584 136 46.456 136H56V96H71.96L72.232 164.416L72.504 232.84L75 235.528C78.344 239.128 80.736 240.056 85.4 239.56C88.08 239.28 90.288 238.176 92.408 236.056M96 84V48H112V120H96V84M128 84V48H144V120H128V84M160 84V48H176V120H160V84" />
    <glyph glyph-name="email"
      unicode="&#xEA07;"
      horiz-adv-x="256" d="M5 128L5 27L128 27L251 27L251 128L251 229L128 229L5 229L5 128M240 128L240 37L128 37L16 37L16 128L16 219L128 219L240 219L240 128M49.808 185.271L46.169 181.5L86.953 140.32L127.737 99.14L168.837 140.31L209.937 181.48L206.245 185.261L202.552 189.043L165.276 151.776L128 114.51L90.724 151.776L53.448 189.043L49.808 185.271M60.22 88.72L45.965 74.44L49.76 70.734L53.555 67.029L67.994 81.494L82.433 95.958L79.02 99.479C77.143 101.416 75.353 103 75.041 103C74.729 103 68.06 96.574 60.22 88.72M176.98 99.479L173.567 95.958L188.006 81.494L202.445 67.029L206.24 70.734L210.035 74.44L195.78 88.72C187.94 96.574 181.271 103 180.959 103C180.647 103 178.857 101.416 176.98 99.479" />
    <glyph glyph-name="favourite-31"
      unicode="&#xEA08;"
      horiz-adv-x="256" d="M132.784 240.056L167.56 169.592L245.304 158.296C249.68 157.656 251.432 152.28 248.264 149.192L192 94.36L205.28 16.92A5.336 5.336 0 0 0 197.544 11.304L128 47.856L58.448 11.296A5.328 5.328 0 0 0 50.712 16.904L64 94.36L7.736 149.2A5.336 5.336 0 0 0 10.696 158.304L88.44 169.6L123.216 240.064A5.336 5.336 0 0 0 132.784 240.064z" />
    <glyph glyph-name="grid-45"
      unicode="&#xEA09;"
      horiz-adv-x="256" d="M5.664 250.336C5.304 249.968 5 225.888 5 196.832V144H112V251H59.168C30.112 251 6.032 250.696 5.664 250.336M144 197.512V144H251.016L250.76 197.248L250.504 250.504L197.248 250.76L144 251.016V197.52M101 197.504V155.008H16V240H101V197.496M240 197.496V155H155V240H240V197.496M5.24 58.76L5.496 5.504L58.752 5.248L112 4.992V112H4.984L5.24 58.752M144 58.48V4.976L197.248 5.232L250.504 5.488L250.76 58.744L251.016 111.992H144V58.48M101 58.488V16H16V101H101V58.496M240 58.496V16H155V101H240V58.496" />
    <glyph glyph-name="headset"
      unicode="&#xEA0A;"
      horiz-adv-x="256" d="M115 255.4C87.84 250.408 71.712 243.16 54.248 228.08C36.568 212.824 24.168 191.536 18.36 166.504C16.688 159.304 16.504 153.744 16.504 111.48V64.464L19.832 57.688C22.232 52.824 24.568 49.808 28.152 46.976C35.752 40.976 40.408 40 61.68 40H80V136H31.704L32.312 147.248C32.648 153.44 33.808 162.096 34.888 166.496C45.864 211.008 86.624 241.872 131.496 239.664C156.664 238.432 177.04 229.712 194.848 212.576C212.408 195.664 222.288 173.296 223.688 147.248L224.296 136H176V40L194.752 40.032C210.2 40.064 214.424 40.384 218.752 41.872L224 43.696L223.992 39.6C223.968 30.648 215.784 19.752 207.144 17.16C204.584 16.392 193.224 16 173.632 16H144V0H172.816C189.328 0 204.144 0.464 207.528 1.088C220.032 3.408 230.608 11.728 236.3040000000001 23.76L239.504 30.504L239.8 90C240 129.096 239.728 152.336 239.008 157.7840000000001C235.464 184.6400000000001 221.456 211.072 201.752 228.0800000000001C181.032 245.9680000000001 158.328 254.7680000000001 131 255.4960000000001C123.576 255.6960000000001 116.376 255.6560000000001 115 255.4000000000001M64 87.912V55.824L53.168 56.16C43.024 56.48 42.096 56.68 38.56 59.384C32.312 64.152 32 65.816 32 94.472V120H64V87.912M224 94.472C224 65.816 223.688 64.152 217.44 59.384C213.904 56.68 212.976 56.48 202.832 56.16L192 55.824V120H224V94.472" />
    <glyph glyph-name="home-3"
      unicode="&#xEA0B;"
      horiz-adv-x="256" d="M128 209.264L32 132.464V16A8 8 0 0 1 40 8H104V64H152V8H216A8 8 0 0 1 224 16V132.464zM152 96H104V136H152zM252.992 150.248L132.992 246.248A8 8 0 0 1 123 246.248L64 199.048V224H40V179.848L3 150.248A8 8 0 0 1 12.992 137.752L128 229.76L243 137.76A7.936 7.936 0 0 1 248 136A8 8 0 0 1 253 150.248z" />
    <glyph glyph-name="hotel"
      unicode="&#xEA0C;"
      horiz-adv-x="256" d="M32 88H8C3.2 88 0 84.8 0 80V8C0 3.2 3.2 0 8 0H32V88zM248 88H224V0H248C252.8 0 256 3.2 256 8V80C256 84.8 252.8 88 248 88zM200 208H152V248C152 252.8 148.8 256 144 256S136 252.8 136 248V240H120V248C120 252.8 116.8 256 112 256S104 252.8 104 248V208H56C51.2 208 48 204.8 48 200V8C48 3.2 51.2 0 56 0H112V32C112 36.8 115.2 40 120 40H136C140.8 40 144 36.8 144 32V0H200C204.8 0 208 3.2 208 8V200C208 204.8 204.8 208 200 208zM112 64H80V80H112V64zM112 96H80V112H112V96zM112 128H80V144H112V128zM112 160H80V176H112V160zM136 208H120V224H136V208zM176 64H144V80H176V64zM176 96H144V112H176V96zM176 128H144V144H176V128zM176 160H144V176H176V160z" />
    <glyph glyph-name="hybrid"
      unicode="&#xEA0D;"
      horiz-adv-x="256" d="M114.504 255.384C95.576 253.408 73 245.096 56.424 234C40.064 223.04 22.384 202.736 13.096 184.224C-3.704 150.752 -4.056 109.136 12.136 74.064C15.696 66.384 27.872 46.816 29.88 45.576C31.288 44.704 43.08 54.056 42.248 55.376C41.84 56.032 39.2 59.936 36.392 64.032C16.328 93.336 11.008 127.144 21.112 161.0000000000001C24.152 171.1440000000001 32.24 186.648 39.528 196.28C63.552 228.0080000000001 106.152 245.1040000000001 144.616 238.4640000000001C191.552 230.3680000000001 225.904 198.7600000000001 237.208 153.28C240.368 140.5360000000001 240.352 115.376 237.16 102.5280000000001A119.12 119.12 0 0 0 217.984 61.5040000000001C216 58.752 214.064 55.984 213.688 55.3440000000001C212.928 54.0640000000001 224.768 44.736 226.104 45.568C226.552 45.84 229.672 50.192 233.048 55.232C243.832 71.36 249.688 84.944 253.624 103.04C256.184 114.768 256.168 141.016 253.6 152.96C248.024 178.904 236.904 199.32 218.112 218.112C199.408 236.816 177.4 248.744 152.816 253.512C144.6 255.104 122.256 256.2 114.496 255.384M113.344 214.584C90.688 210.264 72.568 199.496 58.848 182.224C55.632 178.184 53 174.72 53 174.536C53 174.352 55.808 172.104 59.248 169.536L65.504 164.88L67.944 168.192C69.288 170.008 74.024 175.152 78.472 179.616C85.2 186.384 88.136 188.496 96.024 192.272C101.24 194.768 107.976 197.392 111 198.112C118.304 199.856 138.048 199.856 145 198.112C161.088 194.08 175.136 184.36 187.504 168.704L190.504 164.904L196.744 169.544C200.48 172.32 202.728 174.664 202.328 175.344C201.968 175.984 199.512 179.232 196.888 182.568A86.65599999999999 86.65599999999999 0 0 1 150.496 213.016C140.12 215.688 122.896 216.416 113.344 214.592M88 136V120H64L64.016 88.752C64.04 52.832 64.656 48.192 71.136 35.032C81.464 14.08 104.288 0.032 128 0.032C151.712 0.032 174.536 14.08 184.864 35.032C191.344 48.184 191.96 52.832 191.984 88.752L192 120H168V152H152V120H104V152H88V136M176 81.552C176 68.592 175.52 56.856 174.864 53.792C172.92 44.72 169.088 37.984 161.552 30.424C154 22.84 147.312 19.032 138.2 17.112A49.248 49.248 0 0 0 107 20.792C99.728 24.16 88.248 35.672 84.832 43C80.712 51.84 80 57.52 80 81.552V104H176V81.552" />
    <glyph glyph-name="layout-11"
      unicode="&#xEA0E;"
      horiz-adv-x="256" d="M21.664 250.336C21.296 249.968 21 217.568 21 178.336V107H112V251H67.168C42.504 251 22.032 250.696 21.664 250.336M133.672 250.336C133.304 249.968 133 231.968 133 210.336V171H235.024L234.76 210.752L234.504 250.496L184.424 250.76C156.888 250.904 134.048 250.712 133.672 250.344M101 178.504V117H32V240H101V178.496M224 210.496V181H144V240H224V210.496M133.24 77.256L133.496 5.512H234.504L234.76 77.256L235.016 149.008H132.984L133.24 77.256M224 77.504V16H144V139H224V77.496M21.24 45.256L21.504 5.496L66.752 5.24L112 4.984V85H20.976L21.24 45.248M101 45.504V16H32V75H101V45.496" />
    <glyph glyph-name="p-heart"
      unicode="&#xEA0F;"
      horiz-adv-x="256" d="M41.72 249.92C33.872 248.04 28.12 243.24 23.84 235L21.504 230.496V25.496L23.84 21C27.104 14.704 31.408 10.52 37.384 7.816L42.504 5.496H154.504L154.8 10.728L155.104 15.952L98.72 16.224L42.344 16.504L38.568 19.384C32.792 23.784 32 26.752 32 43.968V59H123V69H32V197H192V128H203.104L202.8 179.248L202.496 230.496L200.032 235.328A34.784 34.784 0 0 1 193.672 243.68C185.72 250.864 190.072 250.48 114 250.664C75.792 250.76 43.824 250.424 41.72 249.928M182.656 238.36C184.56 237.456 187.328 235.128 188.808 233.192C191.288 229.952 191.528 228.792 191.84 218.832L192.176 208H31.824L32.16 218.832C32.472 228.768 32.72 229.952 35.184 233.176C40.6 240.28 36.96 239.952 111.848 239.976C172.248 240 179.552 239.832 182.648 238.36M169.92 106.024C163.68 104.92 158.2 101.96 153.264 97.024A31.055999999999997 31.055999999999997 0 0 1 148.808 58.504C150.168 56.304 161.552 44.152 174.112 31.504L196.952 8.504L220.544 32C233.52 44.928 245.1840000000001 57.296 246.472 59.504C251.584 68.224 251.784 80.568 246.968 90.048C244.552 94.808 236.888 101.72 231.272 104.208C222.28 108.184 208.632 106.488 200.48 100.376L197.464 98.112L193.072 101.064A32.48 32.48 0 0 1 169.92 106.024M185.992 92.888C188.216 91.632 191.632 88.28 193.632 85.368L197.248 80.12L201.488 85.88C206.128 92.176 210.744 94.992 217.728 95.776C233.112 97.512 245.0080000000001 79.224 237.5840000000001 65.232C236.784 63.728 227.296 53.728 216.4960000000001 43L196.864 23.504L177.904 42.84C167.48 53.472 158.064 63.912 156.976 66.04C155.768 68.416 155 71.912 155 75.056C155 91.128 171.864 100.824 185.992 92.888" />
    <glyph glyph-name="phone-2"
      unicode="&#xEA10;"
      horiz-adv-x="256" d="M23.632 223.128L4.76 204.248L5.904 189.328C11.344 118.128 51.064 58.632 114.84 26.12C137.12 14.76 161.68 8.088 189.6 5.824L204.128 4.64L223.064 23.576L241.992 42.512L211.496 72.992L181 103.48L164.992 87.496L148.984 71.512L110.248 110.248L71.504 148.992L87.488 165L103.48 181.008L72.984 211.52L42.488 242L23.632 223.12M72.496 164.992L56.512 148.984L102.752 102.744L148.992 56.504L164.992 72.488L181.008 88.472L204 65.488L227 42.504L213.56 29.064L200.104 15.608L187.464 16.8C141.432 21.136 102.68 39.24 70.464 71.456C39.216 102.704 20.824 142.28 16.776 186.984L15.592 200.0560000000001L29.032 213.528L42.48 227.008L65.48 204.008L88.488 181.008L72.496 165" />
    <glyph glyph-name="pin-2"
      unicode="&#xEA11;"
      horiz-adv-x="256" d="M37.48 249.944C27.064 248.56 16.72 240.184 12.928 230.104C10.088 222.544 10.496 211.464 13.84 205C17.96 197.048 25.232 190.704 33.248 188.072L37 186.848V159.416L32.56 158.232C26.56 156.624 18.376 149.688 14.6 143C11.736 137.912 11.504 136.784 11.504 128C11.504 120.016 11.872 117.816 13.792 114.208C21.816 99.168 38.456 92.392 53.448 98.048C63.184 101.728 71.52 110.768 73.464 119.784L74.176 123.064L85.224 122.784L96.28 122.496L97.504 118.352C101.184 105.896 114.672 95.984 127.904 96.008C132.736 96.024 140.4 97.984 143.72 100.056C145.88 101.4 145.024 102.216 174.624 70.672L187.608 56.832L184.808 51.28C183.264 48.216 182 45.104 182 44.36C182 43.296 179.56 43 170.704 43H159.416L158.248 47.376C155.928 56.048 146.008 65.568 136.656 68.096C130.576 69.744 119.352 68.752 114.208 66.112C103.504 60.632 97.08 50.992 96.264 39.208C95.656 30.344 98.528 22.488 104.872 15.704C110.24 9.96 114.368 7.672 122.248 6.048C128.752 4.704 136.856 5.872 143 9.032C148.544 11.888 154.856 19.096 157.488 25.584L159.888 31.504L170.808 31.784L181.72 32.064L182.92 27.784C183.584 25.424 185.64 21.4 187.512 18.832C199.352 2.528 222.448 0.992 236.424 15.584C242.744 22.176 245.28 29.248 244.824 39C244.264 51.4 237.408 61.296 225.768 66.52C220.608 68.84 218.76 69.16 212.152 68.84C206.8 68.6 203.152 67.808 200.016 66.248L195.528 64.016L193.424 66.256C148.072 114.544 153.312 108.304 155.44 111.544C159.808 118.224 161.088 128.848 158.528 137.28C154.44 150.752 142.528 159.36 128 159.36C113.712 159.36 101.304 150.528 97.504 137.648L96.28 133.504L85.224 133.216L74.176 132.936L73.464 136.216C72.344 141.416 69.512 146.168 64.832 150.696C60.536 154.856 53.112 158.936 49.752 158.976C48.168 159 48 160.336 48 172.864V186.736L53.8 188.848C60.48 191.288 67.8 197.72 70.984 203.968C79.144 219.96 72.728 239.248 56.712 246.872C49.784 250.168 44.92 250.96 37.472 249.944M122.056 249.84C106.784 247.376 95.176 232.504 96.264 216.792C97.072 205.048 103.368 195.576 114.208 189.8C117.808 187.872 120.016 187.504 128 187.504S138.184 187.872 141.792 189.8C156.816 197.8 163.608 214.464 157.96 229.416C155.456 236.072 149.632 242.968 143.56 246.496C139.976 248.576 137.904 249.152 129.496 250.416C128.4 250.576 125.048 250.32 122.056 249.84M207.896 249.912C195.816 248.072 185.76 238.744 182.472 226.336C178.488 211.28 187.248 194.432 201.92 188.92C209.464 186.088 220.48 186.52 227.1840000000001 189.92C237.808 195.296 244.296 205.256 244.832 217C245.288 226.92 242.736 233.912 236.2320000000001 240.52C228.528 248.352 218.808 251.576 207.904 249.912M53.84 236.6C74.544 223.536 60.056 191.608 36.528 198.448C23.288 202.296 17.376 218.68 25.056 230.264C31.4 239.848 44.224 242.672 53.84 236.6M136.512 238.136C152.352 230.936 153.2 208.488 137.952 200.024C121.544 190.904 102.048 207.464 107.992 225.472C111.8 237.008 125.552 243.112 136.512 238.136M221.496 238.12C229.728 234.344 234.136 227.536 234.136 218.608C234.136 212.072 232.96 209.072 228.424 204.048C218.024 192.536 199.12 196.656 193.384 211.68C190.072 220.336 193.832 231.344 201.816 236.384C208.232 240.44 215.128 241.048 221.496 238.12M205.736 158.976C199.816 157.48 194.848 154.528 190.36 149.832C185.304 144.544 183.584 141.216 182.04 133.752C179.848 123.088 183.32 112.72 191.704 104.872C207.544 90.064 231.712 94.528 242.208 114.208C244.128 117.808 244.496 120.016 244.496 128C244.496 136.664 244.24 137.968 241.536 142.856A34.88 34.88 0 0 1 226.456 157.016C221.608 159.368 211.2 160.352 205.736 158.976M51.512 147.136C53.712 146.136 56.952 143.68 58.704 141.688C70.528 128.224 60.784 107.104 42.72 107.024C30.48 106.968 21.8 115.672 21.8 128C21.8 137.056 26.832 144.616 35.032 147.888C39.016 149.48 47.168 149.104 51.512 147.136M139.344 145.816C141.456 144.376 144.384 141.456 145.848 139.344C148.144 136.024 148.496 134.488 148.496 128C148.496 121.472 148.144 119.984 145.76 116.504A29.520000000000003 29.520000000000003 0 0 0 139.336 110C136.2 107.872 134.504 107.496 128 107.496C121.496 107.496 119.8 107.872 116.664 110C105.384 117.64 103.64 133.488 113.056 142.904C117.776 147.624 121.792 149.096 129 148.752C134.0399999999999 148.512 136.36 147.856 139.3439999999999 145.816M225.232 145.416C231.184 141.232 234.2 135.416 234.2 128.112C234.2 115.776 225.6 107 213.5039999999999 107C194.8639999999999 107 185.1519999999999 128.88 197.7999999999999 142.376C204.7279999999999 149.7600000000001 217.0879999999999 151.1280000000001 225.2319999999999 145.4160000000001M29.504 66.16C17.992 60.536 11.728 51.256 11.168 38.992C10.72 29.232 13.264 22.168 19.568 15.576C30.72 3.936 48.368 2.216 61.168 11.496C80.808 25.76 78.112 55.416 56.192 66.168C52.76 67.848 49.352 68.552 43.496 68.784C36.336 69.064 34.872 68.784 29.496 66.16M50.616 56.872C52.328 56.352 55.352 54.304 57.336 52.32A20.976 20.976 0 0 0 44.648 16.296C39.928 15.816 38.248 16.128 33.664 18.368C19.024 25.536 17.328 44.512 30.464 54.528C35.76 58.576 42.424 59.352 50.624 56.872M138.456 55.616C149.896 49.472 152.488 33.312 143.656 23.248C137.6 16.36 127.672 14.144 119.496 17.856C100.952 26.28 104.04 54.416 123.904 58.008A21.856 21.856 0 0 0 138.456 55.616M219.088 57.568C223.488 56.824 230.152 51.296 232.4480000000001 46.472C234.5120000000001 42.104 234.648 33.48 232.7120000000001 28.848C226.2720000000001 13.424 204.4400000000001 11.824 195.424 26.112C191.44 32.432 191.072 39.568 194.376 46.328C198.144 54.032 207.352 59.72 214 58.456C214.8240000000001 58.296 217.12 57.896 219.088 57.568" />
    <glyph glyph-name="pin-3"
      unicode="&#xEA12;"
      horiz-adv-x="256" d="M113.04 254.896C100.944 253.048 84.24 246.312 73.136 238.816C48.616 222.248 34.36 197.136 32.376 167C30.32 135.832 47.624 99.672 89.536 47.496C100.168 34.264 124.496 7.048 127.168 5.392C129.2 4.144 155.744 33.432 173.472 56.504C207.792 101.128 224.016 134.816 224 161.36C223.992 169.504 221.496 184.52 218.872 192.264C213.608 207.752 202.232 223.776 189.168 234.064C179.528 241.672 162.128 250.304 151 253.024C141.064 255.44 122.56 256.36 113.04 254.896M142.344 238.56C163.264 234.56 184.08 220.952 195.384 203.88C207.048 186.28 210.72 162.584 204.984 142C200.296 125.216 183.944 96.752 163.616 70C153.616 56.832 129.192 28 128.048 28C126.208 28 102.304 56.192 89.48 73.504C66.088 105.072 53.04 129.688 49.32 149.256C47.504 158.84 47.96 171.2 50.496 181C60.752 220.576 101.816 246.312 142.336 238.56M120.736 190.968A34.24 34.24 0 0 1 98.816 173.192C96.944 169.408 96.496 166.864 96.496 160C96.496 149.88 98.688 144.464 105.576 137.576C116.752 126.408 133.736 124.936 146.424 134.056C167.04 148.856 163.328 179.656 139.744 189.472C134.968 191.456 125.608 192.192 120.736 190.968M134.656 174.36C144.696 169.592 146.9200000000001 157.208 139.192 149.08C135.072 144.76 130.4320000000001 143.32 124.256 144.48C119.496 145.376 113.352 151.616 112.432 156.496C109.952 169.704 122.76 180 134.656 174.36" />
    <glyph glyph-name="preferences-circle"
      unicode="&#xEA13;"
      horiz-adv-x="256" d="M68.792 249.856C55.192 248.016 42.2 236.616 38.936 223.664L37.76 219H5V208H21.504C35.312 208 38 207.76 38 206.536C38 202.536 42.576 193.528 47.152 188.528C61.76 172.544 85.736 171.888 100.92 187.08A36.824 36.824 0 0 1 102 238.384C93.248 247.88 82.264 251.672 68.8 249.856M82.88 238.44C97.56 234.088 105.24 216.56 98.64 202.504C94.072 192.76 87.048 187.896 76.592 187.224C70.712 186.848 68.496 187.16 64.24 188.992C45.416 197.096 42.672 223.336 59.456 234.752C67.384 240.144 73.776 241.152 82.888 238.44M133.008 213.512V208H251.112L250.808 213.248L250.504 218.504L191.76 218.76L133.008 219.016V213.512M146.896 162.696C134.872 157.648 127.296 149.368 124.072 137.752L122.752 133H4.992V123H122.736L124.048 118.248C126.48 109.384 132.208 101.832 140.496 96.56C146.872 92.496 152.136 91 160 91C173.536 91 184.936 97.56 192.184 109.504C196.928 117.328 198.432 129.296 195.816 138.384C193 148.136 184.912 157.28 175.048 161.88C167 165.632 154.728 165.984 146.888 162.696M171.704 151.736C180.944 147.248 186.176 138.696 186.176 128.056C186.176 119.68 183.584 113.664 177.672 108.32C172.272 103.44 167.6 101.68 159.992 101.632C149.536 101.56 141.248 106.712 136.104 116.488C133.144 122.096 133.144 133.912 136.104 139.512C143.2 152.952 158.424 158.168 171.704 151.728M219 128V123H251V133H219V128M65.384 78.648C58.28 76.84 52.032 72.944 46.664 66.976C42.544 62.392 38 53.208 38 49.456C38 48.24 35.312 48 21.496 48H5.008V37H37.76L38.92 32.408C43.24 15.24 62.248 3.064 80.208 5.96C106.424 10.176 120.392 39.992 106.48 62.024C97.928 75.576 80.696 82.552 65.384 78.648M85 66.92C106.576 57.16 106.104 26.168 84.256 17.992A26.384 26.384 0 0 0 49.424 50.376C53.736 65.208 71.008 73.248 85 66.92M133 42.488V36.984L191.752 37.24L250.496 37.496L250.8 42.752L251.104 48H133V42.488" />
    <glyph glyph-name="recipe"
      unicode="&#xEA14;"
      horiz-adv-x="256" d="M16 128V0H171.512L205.752 34.256L240 68.512V256H16V128M224 160V80H160V16H32V240H224V160M64 184V176H88V192H64V184M104 184V176H192V192H104V184M64 128V120H88V136H64V128M104 128V120H192V136H104V128M64 72V64H88V80H64V72M104 72V64H144V80H104V72M212 63.744C212 63.6 203.904 55.392 194 45.504L176 27.52V64H194C203.904 64 212 63.88 212 63.744" />
    <glyph glyph-name="responsive"
      unicode="&#xEA15;"
      horiz-adv-x="256" d="M137.184 254.32C131.384 251.464 128.608 246.696 128.16 238.864L127.776 232H0V56H24V50.472C24 43.288 25.888 38.952 30.56 35.384L34.344 32.504H85.656L89.432 35.384C94.112 38.952 96 43.288 96 50.472V56H256V232H232.224L231.84 238.864C231.52 244.384 230.928 246.4 228.784 249.216C223.6 256.016 223.672 256 179.848 255.976C145.464 255.96 140.088 255.744 137.176 254.32M216 188V136H144V240H216V188M128 174.464C128 128.272 127.984 128.4 134.56 123.384L138.344 120.504H221.656L225.432 123.384C232.016 128.4 232.0000000000001 128.264 232.0000000000001 174.472V216H240.0000000000001V72H96V101.6C96 134.648 95.808 135.76 89.184 140.8L85.656 143.496H34.344L30.816 140.808C24.192 135.76 24 134.64 24 101.6V72H16V216H128V174.464M168 152V144H192V160H168V152M80 88V48H40V128H80V88M48 64V56H72V72H48V64M104 32V24H80V8H176V24H152V40H104V32" />
    <glyph glyph-name="settings"
      unicode="&#xEA16;"
      horiz-adv-x="256" d="M181.36 254.08C164.248 249.44 150.28 238.48 143.024 224.016C138.072 214.144 136.584 207.512 136.496 194.92L136.416 183.344L126.96 174.704L117.504 166.064L78.752 204.784L40 243.48L22.256 225.744L4.504 208L42.456 170.04C63.336 149.16 80.208 131.904 79.96 131.68C67.552 120.96 6.68 64.744 4.744 62.24A22.776 22.776 0 0 1 2.08 39.032C4.544 33.592 31.616 5.816 37.32 2.872A24.224 24.224 0 0 1 64.168 6.272C66.192 8.048 93.848 38.08 125.632 73.008L183.424 136.512L193.032 136.1520000000001C229.032 134.8 258.016 164.144 255.664 199.5440000000001C255.152 207.2400000000001 249.7920000000001 227.0080000000001 248.216 227.0080000000001C247.832 227.0080000000001 240.432 219.928 231.76 211.2640000000001L216 195.52L205.76 205.76L195.52 216L211.256 231.76C219.92 240.432 227 247.84 227 248.224C227 248.616 222.616 250.32 217.248 252.024C204.288 256.144 191.616 256.872 181.36 254.088M184.496 227.992L172.52 216L194.256 194.264L215.984 172.528L228.104 184.52L240.224 196.504L239.5600000000001 191.136C238.2 180.088 231.4000000000001 167.536 223.736 161.88C211.728 153.024 198.104 150.056 185.096 153.464C178.984 155.064 178.616 155.064 176.968 153.328C176.024 152.328 149.496 123.16 118.024 88.512C86.552 53.856 58.632 23.368 55.976 20.752C47.976 12.896 47.232 13.184 30.264 30.752C13.528 48.088 13.376 48.496 20.744 55.976C23.36 58.624 53.624 86.328 88 117.544C122.376 148.752 151.544 175.28 152.816 176.488C155.112 178.672 155.12 178.752 153.5680000000001 184.744C148.8720000000001 202.872 156.352 222.864 171.4640000000001 232.528C177.2720000000001 236.24 187.7840000000001 239.864 192.9840000000001 239.952L196.472 240L184.496 228M72.992 187.496L105.472 155.008L98.992 149.072L92.496 143.136L60.016 175.544L27.536 207.96L33.488 213.976C36.76 217.288 39.68 219.992 39.968 219.992C40.272 219.992 55.128 205.368 72.992 187.496M182 113.488L176.56 107.984L202.656 81.744C226.536 57.728 228.904 55.032 230.504 50.104C234.544 37.648 229.04 24.712 217 18.376C212.168 15.832 199.856 15.816 195 18.36C193.0800000000001 19.368 180.464 31.176 166.984 44.6L142.464 69.016L136.704 63.2L130.952 57.384L156.232 32.368C183.816 5.056 186.792 2.88 199.352 0.8C232.8160000000001 -4.744 258.456 30.344 243.2960000000001 60.928C241.1600000000001 65.224 234.6320000000001 72.464 214.5920000000001 92.744C200.3200000000001 107.176 188.376 118.992 188.0320000000001 118.992C187.7120000000001 118.992 184.9920000000001 116.512 181.9920000000001 113.488" />
    <glyph glyph-name="sofa"
      unicode="&#xEA17;"
      horiz-adv-x="256" d="M256 136C256 140.8 252.8 144 248 144H216C211.2 144 208 140.8 208 136V104H48V136C48 140.8 44.8 144 40 144H8C3.2 144 0 140.8 0 136V56C0 51.2 3.2 48 8 48H24V32C24 27.2 27.2 24 32 24S40 27.2 40 32V48H216V32C216 27.2 219.2 24 224 24S232 27.2 232 32V48H248C252.8 48 256 51.2 256 56V136zM120 120V232H24C19.2 232 16 228.8 16 224V160H56C60.8 160 64 156.8 64 152V120H120zM240 224C240 228.8 236.8 232 232 232H136V120H192V152C192 156.8 195.2 160 200 160H240V224z" />
    <glyph glyph-name="spaceship"
      unicode="&#xEA18;"
      horiz-adv-x="256" d="M224.504 247.464C195.544 243.68 166.824 234.048 142.392 219.944L134.136 215.168L126.32 217.72C115.648 221.192 95.28 222.048 82.928 219.544C64.992 215.912 49.144 207.464 36.888 195.008C30.768 188.8 22.8 178.24 21.336 174.424C20.888 173.264 25.768 167.72 38.744 154.656L56.776 136.496L50.88 126C47.632 120.224 44.232 113.552 43.32 111.168L41.664 106.84L74.264 74.24L106.864 41.64L113.208 44.336A155.92 155.92 0 0 1 127.984 52.048L136.416 57.064L154.608 38.888C167.728 25.792 173.256 20.888 174.424 21.328C178.44 22.872 189.12 31.024 195.536 37.456C212.056 54.008 221.12 76.192 221.136 100.104C221.136 111.784 219.952 119.92 216.976 128.568L215.016 134.264L218.56 140.104C224.088 149.2 233.488 169.544 236.888 179.768C243.472 199.544 247.288 218.392 248.76 238.248L249.56 249L242.024 248.888A188.24 188.24 0 0 1 224.504 247.464M237.536 231.248C236.544 221.72 233.296 205.048 230.392 194.672C227.664 184.904 221.856 169 221.024 169C220.728 169 208.8 180.688 194.52 194.976C177.888 211.616 168.904 221.296 169.528 221.912C171.472 223.816 198.008 231.992 210.096 234.408C223.36 237.064 226.992 237.584 233.864 237.84L238.232 238L237.536 231.248M213.192 152.408C195.624 117.712 156.584 79.232 118 58.6L109.496 54.048L81.824 81.696L54.144 109.336L57.968 116.92C60.072 121.088 64.576 128.728 67.976 133.896C90.448 168.056 116.248 192.984 148.448 211.64L157.496 216.88L186.84 187.6L216.184 158.312L213.192 152.408M117.992 208.976L123.48 207.728L121.008 206.112C108.336 197.84 83.784 173.7760000000001 71.536 157.632L62.624 145.888L48.144 160.3680000000001L33.656 174.8560000000001L36.512 178.68C48.064 194.12 66.136 205.4 86 209.5680000000001C93.52 211.144 109.744 210.8480000000001 117.992 208.9760000000001M138.784 169.9040000000001C129.264 168.4320000000001 120.056 159.4 118.008 149.5200000000001C114.112 130.7840000000001 130.728 114.1040000000001 149.424 117.984C163.504 120.904 173.024 135.3200000000001 170.048 149.2000000000001C166.928 163.7600000000001 154.08 172.2720000000001 138.784 169.9040000000001M150.656 158.3600000000001C160.696 153.5920000000001 162.92 141.2080000000001 155.192 133.0800000000001C151.072 128.7600000000001 146.432 127.3200000000001 140.256 128.4800000000001C135.488 129.3760000000001 129.352 135.6160000000001 128.432 140.4960000000001C125.952 153.7040000000001 138.76 164.0000000000001 150.656 158.3600000000001M210.024 110.8160000000001C213.64 84.4160000000001 202.72 56.5440000000001 182.032 39.3760000000001C178.472 36.4160000000001 175.32 34.0000000000001 175.016 34.0000000000001C174.72 34.0000000000001 167.952 40.5440000000001 159.984 48.5440000000001C148.032 60.5520000000001 145.784 63.2640000000001 147.128 64.0320000000001C148.024 64.5440000000001 152.968 68.2160000000001 158.112 72.1920000000001C170.864 82.0480000000001 188.928 99.7920000000001 199.08 112.4320000000001C208.608 124.2800000000001 208.168 124.3520000000001 210.024 110.8160000000001M26.72 67.472C21.4 65.52 14.512 60.352 11.584 56.112C6.104 48.176 5.632 45.856 5.2 24.64L4.792 4.784L24.64 5.168C43.608 5.528 44.752 5.656 50.184 8.184C62.6 13.96 69.464 25.296 68.824 39C68.264 51.288 61.968 60.616 50.504 66.12C45.576 68.48 43.248 68.984 37.504 68.928C33.648 68.888 28.8 68.232 26.728 67.472M43.088 57.576C47.488 56.832 54.152 51.304 56.448 46.48C58.528 42.104 58.648 33.472 56.704 28.888C54.704 24.168 50.76 20.248 45.752 17.976C42.272 16.392 39.176 16.04 28.752 16.024L16 16V28.8C16 40.504 16.216 42.048 18.536 46.688C20.008 49.656 22.616 52.848 24.784 54.352C28.528 56.944 35.216 59.032 38 58.472C38.824 58.312 41.12 57.904 43.088 57.576" />
    <glyph glyph-name="stre-left"
      unicode="&#xEA19;"
      horiz-adv-x="256" d="M166.144 4.84L81.488 123.352A8 8 0 0 0 81.488 132.648L166.144 251.16L179.16 241.864L97.832 128L179.16 14.144L166.144 4.84z" />
    <glyph glyph-name="stre-right-2"
      unicode="&#xEA1A;"
      horiz-adv-x="256" d="M87.656 244.416C85.472 242.928 84.064 241.264 84.36 240.512C84.64 239.784 101.544 214.168 121.936 183.592L159.008 128L121.936 72.4C101.544 41.824 84.632 16.208 84.352 15.472C83.872 14.24 91.552 8.152 92.384 9.104C95.752 12.968 171.024 127.552 170.808 128.48C170.432 130.096 92.704 246.9360000000001 91.984 246.976C91.696 246.992 89.752 245.84 87.664 244.4160000000001" />
    <glyph glyph-name="stre-right"
      unicode="&#xEA1B;"
      horiz-adv-x="256" d="M83.208 246.416C79.4 243.592 77.28 241.36 77.712 240.656C78.104 240.016 96.352 214.416 118.256 183.752L158.08 128L118.24 72.248A13733.832000000002 13733.832000000002 0 0 1 77.704 15.344C77.272 14.64 79.392 12.408 83.2 9.584C89.096 5.2 89.488 5.056 91.08 6.736C94.2 10.032 176.992 126.896 176.992 128C176.992 129.104 94.192 245.968 91.072 249.264C89.488 250.944 89.096 250.8 83.2 246.416" />
    <glyph glyph-name="tail-left"
      unicode="&#xEA1C;"
      horiz-adv-x="256" d="M46 169.496L4.504 128L46.248 86.256L87.992 44.512L93.736 50.256L99.48 56.008L67.496 88.008L35.52 120H240V136H35.512L67.488 167.984L99.456 199.976L94.016 205.488C91.016 208.52 88.328 211 88.032 211C87.736 211 68.816 192.328 46 169.496" />
    <glyph glyph-name="tail-right-2"
      unicode="&#xEA1D;"
      horiz-adv-x="256" d="M161.736 206.272L157.992 202.52L192.736 167.76L227.488 133H11V123H227.488L192.72 88.224L157.96 53.448L161.752 49.744L165.544 46.04L206.52 87.016L247.496 128L206.488 169.008L165.48 210.016L161.736 206.272" />
    <glyph glyph-name="tail-right"
      unicode="&#xEA1E;"
      horiz-adv-x="256" d="M161.984 205.488L156.544 199.968L188.512 167.984L220.488 136H16V120H220.488L188.504 88L156.52 56L162.264 50.256L168.008 44.512L209.752 86.256L251.496 128L210 169.496C187.184 192.328 168.264 211 167.968 211C167.672 211 164.984 208.52 161.984 205.48" />
    <glyph glyph-name="triangle-left-18"
      unicode="&#xEA1F;"
      horiz-adv-x="256" d="M204.84 249.64A5.36 5.36 0 0 0 213.336 245.336V10.664A5.328 5.328 0 0 0 204.84 6.36L44.84 123.696A5.344 5.344 0 0 0 44.84 132.304L204.84 249.64z" />
    <glyph glyph-name="triangle-right-17"
      unicode="&#xEA20;"
      horiz-adv-x="256" d="M51.16 249.64A5.328 5.328 0 1 1 42.672 245.336V10.664A5.328 5.328 0 0 1 51.152 6.36L211.152 123.696A5.344 5.344 0 0 1 211.152 132.304L51.16 249.64z" />
  </font>
</defs>
</svg>
